<svg width="58" height="40" viewBox="0 0 58 40" fill="none" xmlns="http://www.w3.org/2000/svg">
<mask id="path-1-outside-1_1923_4285" maskUnits="userSpaceOnUse" x="0" y="0" width="58" height="40" fill="black">
<rect fill="white" width="58" height="40"/>
<path d="M16.588 38.52C12.2547 38.52 8.70133 36.9253 5.928 33.736C3.18933 30.5467 1.82 25.884 1.82 19.748C1.82 13.612 3.20667 8.984 5.98 5.864C8.75333 2.70933 12.324 1.132 16.692 1.132C21.0947 1.132 24.648 2.692 27.352 5.812C30.056 8.932 31.408 13.6293 31.408 19.904C31.408 26.1787 30.0213 30.8587 27.248 33.944C24.5093 36.9947 20.956 38.52 16.588 38.52ZM16.588 11.116C15.2707 11.116 14.144 11.8787 13.208 13.404C12.3067 14.8947 11.856 17.0267 11.856 19.8C11.856 22.5733 12.2893 24.7053 13.156 26.196C14.0573 27.652 15.2013 28.38 16.588 28.38C18.0093 28.38 19.1533 27.6347 20.02 26.144C20.9213 24.6533 21.372 22.5213 21.372 19.748C21.372 16.9747 20.904 14.8427 19.968 13.352C19.0667 11.8613 17.94 11.116 16.588 11.116ZM56.9229 37.116C56.9229 37.7053 55.1549 38 51.6189 38C48.1176 38 46.3669 37.7053 46.3669 37.116V11.48L40.7509 11.532C39.7109 11.532 39.1909 9.868 39.1909 6.54C39.1909 5.396 39.2949 4.28667 39.5029 3.212C39.7456 2.13733 40.1443 1.6 40.6989 1.6H54.9469C55.5363 1.6 56.0043 1.73866 56.3509 2.016C56.7323 2.25866 56.9229 2.57066 56.9229 2.952V37.116Z"/>
</mask>
<path d="M5.928 33.736L5.16931 34.3875L5.17339 34.3922L5.928 33.736ZM5.98 5.864L6.72742 6.52837L6.73104 6.52425L5.98 5.864ZM27.352 5.812L26.5963 6.46693L27.352 5.812ZM27.248 33.944L26.5043 33.2755L26.5039 33.276L27.248 33.944ZM13.208 13.404L12.3557 12.881L12.3523 12.8866L13.208 13.404ZM13.156 26.196L12.2915 26.6986L12.2985 26.7106L12.3057 26.7224L13.156 26.196ZM20.02 26.144L19.1643 25.6266L19.1598 25.6339L19.1555 25.6414L20.02 26.144ZM19.968 13.352L19.1123 13.8694L19.1166 13.8766L19.1211 13.8838L19.968 13.352ZM16.588 38.52V37.52C12.5357 37.52 9.26058 36.0445 6.68261 33.0798L5.928 33.736L5.17339 34.3922C8.14209 37.8062 11.9736 39.52 16.588 39.52V38.52ZM5.928 33.736L6.68667 33.0845C4.16172 30.1441 2.82 25.7523 2.82 19.748H1.82H0.82C0.82 26.0157 2.21695 30.9493 5.16933 34.3875L5.928 33.736ZM1.82 19.748H2.82C2.82 13.7442 4.17866 9.3957 6.72741 6.52836L5.98 5.864L5.23259 5.19963C2.23467 8.5723 0.82 13.4798 0.82 19.748H1.82ZM5.98 5.864L6.73104 6.52425C9.30605 3.59518 12.5985 2.132 16.692 2.132V1.132V0.131997C12.0495 0.131997 8.20061 1.82348 5.22896 5.20374L5.98 5.864ZM16.692 1.132V2.132C20.8265 2.132 24.0961 3.58207 26.5963 6.46693L27.352 5.812L28.1077 5.15707C25.1999 1.80192 21.3628 0.131997 16.692 0.131997V1.132ZM27.352 5.812L26.5963 6.46693C29.0786 9.33111 30.408 13.7495 30.408 19.904H31.408H32.408C32.408 13.5092 31.0334 8.53289 28.1077 5.15707L27.352 5.812ZM31.408 19.904H30.408C30.408 26.0545 29.0458 30.4481 26.5043 33.2755L27.248 33.944L27.9917 34.6125C30.9969 31.2692 32.408 26.3028 32.408 19.904H31.408ZM27.248 33.944L26.5039 33.276C23.9684 36.1002 20.693 37.52 16.588 37.52V38.52V39.52C21.219 39.52 25.0502 37.8891 27.9921 34.612L27.248 33.944ZM16.588 11.116V10.116C14.8033 10.116 13.4007 11.178 12.3557 12.881L13.208 13.404L14.0603 13.927C14.8873 12.5793 15.7381 12.116 16.588 12.116V11.116ZM13.208 13.404L12.3523 12.8866C11.3162 14.6 10.856 16.9423 10.856 19.8H11.856H12.856C12.856 17.1111 13.2971 15.1893 14.0637 13.9214L13.208 13.404ZM11.856 19.8H10.856C10.856 22.6531 11.2976 24.9891 12.2915 26.6986L13.156 26.196L14.0205 25.6934C13.2811 24.4215 12.856 22.4935 12.856 19.8H11.856ZM13.156 26.196L12.3057 26.7224C13.3399 28.393 14.7705 29.38 16.588 29.38V28.38V27.38C15.6322 27.38 14.7747 26.911 14.0063 25.6696L13.156 26.196ZM16.588 28.38V29.38C18.4465 29.38 19.8837 28.3681 20.8845 26.6466L20.02 26.144L19.1555 25.6414C18.423 26.9012 17.5721 27.38 16.588 27.38V28.38ZM20.02 26.144L20.8757 26.6614C21.9118 24.948 22.372 22.6057 22.372 19.748H21.372H20.372C20.372 22.4369 19.9309 24.3587 19.1643 25.6266L20.02 26.144ZM21.372 19.748H22.372C22.372 16.8856 21.893 14.5373 20.8149 12.8202L19.968 13.352L19.1211 13.8838C19.915 15.1481 20.372 17.0638 20.372 19.748H21.372ZM19.968 13.352L20.8237 12.8346C19.801 11.1431 18.3917 10.116 16.588 10.116V11.116V12.116C17.4883 12.116 18.3324 12.5796 19.1123 13.8694L19.968 13.352ZM46.3669 11.48H47.3669V10.4707L46.3577 10.48L46.3669 11.48ZM40.7509 11.532V12.532L40.7602 12.532L40.7509 11.532ZM39.5029 3.212L38.5275 2.99174L38.5241 3.00681L38.5212 3.02198L39.5029 3.212ZM56.3509 2.016L55.7262 2.79687L55.7685 2.83064L55.8141 2.85966L56.3509 2.016ZM56.9229 37.116H55.9229C55.9229 36.6729 56.2702 36.5454 56.1442 36.6083C56.0572 36.6518 55.8423 36.7243 55.4325 36.7926C54.6328 36.9259 53.374 37 51.6189 37V38V39C53.3999 39 54.7931 38.9268 55.7613 38.7654C56.2355 38.6864 56.6837 38.5747 57.0387 38.3972C57.3547 38.2391 57.9229 37.8537 57.9229 37.116H56.9229ZM51.6189 38V37C49.8813 37 48.6362 36.9259 47.8459 36.7929C47.4409 36.7247 47.2301 36.6526 47.1459 36.6101C47.0259 36.5495 47.3669 36.6781 47.3669 37.116H46.3669H45.3669C45.3669 37.8486 45.9268 38.235 46.2444 38.3954C46.5979 38.5739 47.0436 38.686 47.514 38.7651C48.4743 38.9268 49.8552 39 51.6189 39V38ZM46.3669 37.116H47.3669V11.48H46.3669H45.3669V37.116H46.3669ZM46.3669 11.48L46.3577 10.48L40.7417 10.532L40.7509 11.532L40.7602 12.532L46.3762 12.48L46.3669 11.48ZM40.7509 11.532V10.532C40.9327 10.532 40.7664 10.7249 40.5354 9.98572C40.3218 9.30202 40.1909 8.17712 40.1909 6.54H39.1909H38.1909C38.1909 8.23088 38.3201 9.60198 38.6265 10.5823C38.9155 11.5071 39.5291 12.532 40.7509 12.532V11.532ZM39.1909 6.54H40.1909C40.1909 5.45691 40.2894 4.41132 40.4847 3.40202L39.5029 3.212L38.5212 3.02198C38.3005 4.16201 38.1909 5.33509 38.1909 6.54H39.1909ZM39.5029 3.212L40.4784 3.43226C40.5864 2.9539 40.7074 2.70617 40.787 2.59884C40.8213 2.55264 40.8303 2.55665 40.8032 2.5719C40.7704 2.59041 40.7298 2.6 40.6989 2.6V1.6V0.599998C40.0382 0.599998 39.5251 0.943208 39.1808 1.40715C38.8618 1.83716 38.6621 2.39543 38.5275 2.99174L39.5029 3.212ZM40.6989 1.6V2.6H54.9469V1.6V0.599998H40.6989V1.6ZM54.9469 1.6V2.6C55.3838 2.6 55.6075 2.70184 55.7262 2.79687L56.3509 2.016L56.9756 1.23513C56.4011 0.775493 55.6888 0.599998 54.9469 0.599998V1.6ZM56.3509 2.016L55.8141 2.85966C55.8597 2.88869 55.8882 2.91259 55.905 2.9289C55.9215 2.94481 55.9266 2.95338 55.9267 2.95345C55.9268 2.95365 55.9261 2.95263 55.9252 2.95053C55.9243 2.94842 55.9235 2.94618 55.923 2.94415C55.9217 2.93936 55.9229 2.94083 55.9229 2.952H56.9229H57.9229C57.9229 2.16104 57.4954 1.55898 56.8878 1.17234L56.3509 2.016ZM56.9229 2.952H55.9229V37.116H56.9229H57.9229V2.952H56.9229Z" fill="#1B1B1B" mask="url(#path-1-outside-1_1923_4285)"/>
</svg>
