<svg width="66" height="40" viewBox="0 0 66 40" fill="none" xmlns="http://www.w3.org/2000/svg">
<mask id="path-1-outside-1_1954_5380" maskUnits="userSpaceOnUse" x="0" y="0" width="66" height="40" fill="black">
<rect fill="white" width="66" height="40"/>
<path d="M16.588 38.52C12.2547 38.52 8.70133 36.9253 5.928 33.736C3.18933 30.5467 1.82 25.884 1.82 19.748C1.82 13.612 3.20667 8.984 5.98 5.864C8.75333 2.70933 12.324 1.132 16.692 1.132C21.0947 1.132 24.648 2.692 27.352 5.812C30.056 8.932 31.408 13.6293 31.408 19.904C31.408 26.1787 30.0213 30.8587 27.248 33.944C24.5093 36.9947 20.956 38.52 16.588 38.52ZM16.588 11.116C15.2707 11.116 14.144 11.8787 13.208 13.404C12.3067 14.8947 11.856 17.0267 11.856 19.8C11.856 22.5733 12.2893 24.7053 13.156 26.196C14.0573 27.652 15.2013 28.38 16.588 28.38C18.0093 28.38 19.1533 27.6347 20.02 26.144C20.9213 24.6533 21.372 22.5213 21.372 19.748C21.372 16.9747 20.904 14.8427 19.968 13.352C19.0667 11.8613 17.94 11.116 16.588 11.116ZM60.9269 38H43.6629C42.4496 38 41.6003 36.8213 41.1149 34.464C40.8723 33.1813 40.7509 32.2107 40.7509 31.552C40.7509 30.8933 40.8549 30.46 41.0629 30.252C48.8283 22.244 52.7109 16.8013 52.7109 13.924C52.7109 12.9533 52.4509 12.2253 51.9309 11.74C51.4456 11.2547 50.6483 11.012 49.5389 11.012C48.4643 11.012 47.3723 11.22 46.2629 11.636C45.1883 12.052 44.3389 12.5027 43.7149 12.988C42.3629 11.3587 41.4269 9.64267 40.9069 7.84C40.7336 7.25067 40.6469 6.71333 40.6469 6.228C40.6469 5.708 40.7336 5.22266 40.9069 4.772C41.1843 3.87066 42.4669 3.02133 44.7549 2.224C47.0776 1.42667 49.5216 1.028 52.0869 1.028C59.8523 1.028 63.7349 4.47733 63.7349 11.376C63.7349 14.4267 62.6949 17.5293 60.6149 20.684C58.5349 23.804 56.1083 26.508 53.3349 28.796L63.8389 28.38C64.0123 30.2173 64.0989 31.812 64.0989 33.164C64.0989 34.516 63.8216 35.66 63.2669 36.596C62.7123 37.532 61.9323 38 60.9269 38Z"/>
</mask>
<path d="M5.928 33.736L5.16931 34.3875L5.17339 34.3922L5.928 33.736ZM5.98 5.864L6.72742 6.52837L6.73104 6.52425L5.98 5.864ZM27.352 5.812L26.5963 6.46693L27.352 5.812ZM27.248 33.944L26.5043 33.2755L26.5039 33.276L27.248 33.944ZM13.208 13.404L12.3557 12.881L12.3523 12.8866L13.208 13.404ZM13.156 26.196L12.2915 26.6986L12.2985 26.7106L12.3057 26.7224L13.156 26.196ZM20.02 26.144L19.1643 25.6266L19.1598 25.6339L19.1555 25.6414L20.02 26.144ZM19.968 13.352L19.1123 13.8694L19.1166 13.8766L19.1211 13.8838L19.968 13.352ZM16.588 38.52V37.52C12.5357 37.52 9.26058 36.0445 6.68261 33.0798L5.928 33.736L5.17339 34.3922C8.14209 37.8062 11.9736 39.52 16.588 39.52V38.52ZM5.928 33.736L6.68667 33.0845C4.16172 30.1441 2.82 25.7523 2.82 19.748H1.82H0.82C0.82 26.0157 2.21695 30.9493 5.16933 34.3875L5.928 33.736ZM1.82 19.748H2.82C2.82 13.7442 4.17866 9.3957 6.72741 6.52836L5.98 5.864L5.23259 5.19963C2.23467 8.5723 0.82 13.4798 0.82 19.748H1.82ZM5.98 5.864L6.73104 6.52425C9.30605 3.59518 12.5985 2.132 16.692 2.132V1.132V0.131997C12.0495 0.131997 8.20061 1.82348 5.22896 5.20374L5.98 5.864ZM16.692 1.132V2.132C20.8265 2.132 24.0961 3.58207 26.5963 6.46693L27.352 5.812L28.1077 5.15707C25.1999 1.80192 21.3628 0.131997 16.692 0.131997V1.132ZM27.352 5.812L26.5963 6.46693C29.0786 9.33111 30.408 13.7495 30.408 19.904H31.408H32.408C32.408 13.5092 31.0334 8.53289 28.1077 5.15707L27.352 5.812ZM31.408 19.904H30.408C30.408 26.0545 29.0458 30.4481 26.5043 33.2755L27.248 33.944L27.9917 34.6125C30.9969 31.2692 32.408 26.3028 32.408 19.904H31.408ZM27.248 33.944L26.5039 33.276C23.9684 36.1002 20.693 37.52 16.588 37.52V38.52V39.52C21.219 39.52 25.0502 37.8891 27.9921 34.612L27.248 33.944ZM16.588 11.116V10.116C14.8033 10.116 13.4007 11.178 12.3557 12.881L13.208 13.404L14.0603 13.927C14.8873 12.5793 15.7381 12.116 16.588 12.116V11.116ZM13.208 13.404L12.3523 12.8866C11.3162 14.6 10.856 16.9423 10.856 19.8H11.856H12.856C12.856 17.1111 13.2971 15.1893 14.0637 13.9214L13.208 13.404ZM11.856 19.8H10.856C10.856 22.6531 11.2976 24.9891 12.2915 26.6986L13.156 26.196L14.0205 25.6934C13.2811 24.4215 12.856 22.4935 12.856 19.8H11.856ZM13.156 26.196L12.3057 26.7224C13.3399 28.393 14.7705 29.38 16.588 29.38V28.38V27.38C15.6322 27.38 14.7747 26.911 14.0063 25.6696L13.156 26.196ZM16.588 28.38V29.38C18.4465 29.38 19.8837 28.3681 20.8845 26.6466L20.02 26.144L19.1555 25.6414C18.423 26.9012 17.5721 27.38 16.588 27.38V28.38ZM20.02 26.144L20.8757 26.6614C21.9118 24.948 22.372 22.6057 22.372 19.748H21.372H20.372C20.372 22.4369 19.9309 24.3587 19.1643 25.6266L20.02 26.144ZM21.372 19.748H22.372C22.372 16.8856 21.893 14.5373 20.8149 12.8202L19.968 13.352L19.1211 13.8838C19.915 15.1481 20.372 17.0638 20.372 19.748H21.372ZM19.968 13.352L20.8237 12.8346C19.801 11.1431 18.3917 10.116 16.588 10.116V11.116V12.116C17.4883 12.116 18.3324 12.5796 19.1123 13.8694L19.968 13.352ZM41.1149 34.464L40.1324 34.6499L40.1339 34.6578L40.1355 34.6657L41.1149 34.464ZM41.0629 30.252L41.77 30.9591L41.7755 30.9537L41.7808 30.9481L41.0629 30.252ZM51.9309 11.74L51.2238 12.4471L51.236 12.4593L51.2486 12.4711L51.9309 11.74ZM46.2629 11.636L45.9118 10.6996L45.9019 10.7034L46.2629 11.636ZM43.7149 12.988L42.9454 13.6266L43.5641 14.3722L44.3289 13.7773L43.7149 12.988ZM40.9069 7.84L41.8678 7.56283L41.8663 7.55783L40.9069 7.84ZM40.9069 4.772L41.8403 5.13098L41.8526 5.09892L41.8627 5.06608L40.9069 4.772ZM44.7549 2.224L44.4302 1.27817L44.4259 1.2797L44.7549 2.224ZM60.6149 20.684L61.447 21.2387L61.4498 21.2345L60.6149 20.684ZM53.3349 28.796L52.6986 28.0246L50.4101 29.9126L53.3745 29.7952L53.3349 28.796ZM63.8389 28.38L64.8345 28.2861L64.7456 27.3433L63.7994 27.3808L63.8389 28.38ZM60.9269 38V37H43.6629V38V39H60.9269V38ZM43.6629 38V37C43.4435 37 43.206 36.9182 42.9272 36.5314C42.6219 36.1076 42.3249 35.3821 42.0944 34.2623L41.1149 34.464L40.1355 34.6657C40.3903 35.9032 40.7607 36.9457 41.3046 37.7006C41.8752 38.4924 42.6691 39 43.6629 39V38ZM41.1149 34.464L42.0975 34.2781C41.8575 33.0094 41.7509 32.1138 41.7509 31.552H40.7509H39.7509C39.7509 32.3076 39.8871 33.3532 40.1324 34.6499L41.1149 34.464ZM40.7509 31.552H41.7509C41.7509 31.2677 41.7741 31.0797 41.8013 30.9664C41.8308 30.8434 41.8472 30.882 41.77 30.9591L41.0629 30.252L40.3558 29.5449C40.0707 29.83 39.931 30.1892 39.8566 30.4996C39.7797 30.8196 39.7509 31.1777 39.7509 31.552H40.7509ZM41.0629 30.252L41.7808 30.9481C45.6787 26.9285 48.6298 23.5249 50.613 20.7447C51.6047 19.3547 52.3692 18.1 52.8891 16.9859C53.4035 15.8836 53.7109 14.8509 53.7109 13.924H52.7109H51.7109C51.7109 14.4357 51.533 15.1624 51.0768 16.1401C50.626 17.106 49.9346 18.252 48.9849 19.5833C47.0855 22.2458 44.2126 25.5675 40.345 29.5559L41.0629 30.252ZM52.7109 13.924H53.7109C53.7109 12.7808 53.4015 11.7446 52.6133 11.0089L51.9309 11.74L51.2486 12.4711C51.5004 12.706 51.7109 13.1258 51.7109 13.924H52.7109ZM51.9309 11.74L52.638 11.0329C51.8777 10.2726 50.7569 10.012 49.5389 10.012V11.012V12.012C50.5397 12.012 51.0135 12.2368 51.2238 12.4471L51.9309 11.74ZM49.5389 11.012V10.012C48.3327 10.012 47.1219 10.2459 45.9118 10.6997L46.2629 11.636L46.6141 12.5723C47.6226 12.1941 48.5959 12.012 49.5389 12.012V11.012ZM46.2629 11.636L45.9019 10.7034C44.774 11.1401 43.8283 11.633 43.101 12.1986L43.7149 12.988L44.3289 13.7773C44.8496 13.3723 45.6025 12.9639 46.6239 12.5686L46.2629 11.636ZM43.7149 12.988L44.4845 12.3494C43.2092 10.8125 42.345 9.21715 41.8678 7.56284L40.9069 7.84L39.9461 8.11716C40.5089 10.0682 41.5167 11.9048 42.9454 13.6266L43.7149 12.988ZM40.9069 7.84L41.8663 7.55783C41.7131 7.03703 41.6469 6.59641 41.6469 6.228H40.6469H39.6469C39.6469 6.83026 39.7541 7.4643 39.9476 8.12216L40.9069 7.84ZM40.6469 6.228H41.6469C41.6469 5.82123 41.7143 5.45854 41.8403 5.13098L40.9069 4.772L39.9736 4.41302C39.7529 4.98678 39.6469 5.59476 39.6469 6.228H40.6469ZM40.9069 4.772L41.8627 5.06608C41.902 4.93854 42.0675 4.66458 42.629 4.29278C43.1731 3.93255 43.9792 3.55332 45.084 3.1683L44.7549 2.224L44.4259 1.2797C43.2427 1.69201 42.2635 2.13611 41.5248 2.62522C40.8037 3.10275 40.1893 3.70412 39.9512 4.47791L40.9069 4.772ZM44.7549 2.224L45.0796 3.16982C47.2932 2.40994 49.6271 2.028 52.0869 2.028V1.028V0.0279989C49.4161 0.0279989 46.862 0.443391 44.4303 1.27818L44.7549 2.224ZM52.0869 1.028V2.028C55.8427 2.028 58.4727 2.86471 60.1588 4.36259C61.8223 5.84044 62.7349 8.11348 62.7349 11.376H63.7349H64.7349C64.7349 7.73985 63.7063 4.83889 61.4871 2.8674C59.2905 0.915953 56.0965 0.0279989 52.0869 0.0279989V1.028ZM63.7349 11.376H62.7349C62.7349 14.1889 61.7782 17.1031 59.7801 20.1335L60.6149 20.684L61.4498 21.2345C63.6117 17.9555 64.7349 14.6645 64.7349 11.376H63.7349ZM60.6149 20.684L59.7829 20.1293C57.7548 23.1714 55.3932 25.8015 52.6986 28.0246L53.3349 28.796L53.9713 29.5674C56.8233 27.2145 59.3151 24.4366 61.447 21.2387L60.6149 20.684ZM53.3349 28.796L53.3745 29.7952L63.8785 29.3792L63.8389 28.38L63.7994 27.3808L53.2954 27.7968L53.3349 28.796ZM63.8389 28.38L62.8434 28.4739C63.0147 30.2904 63.0989 31.8523 63.0989 33.164H64.0989H65.0989C65.0989 31.7717 65.0098 30.1442 64.8345 28.2861L63.8389 28.38ZM64.0989 33.164H63.0989C63.0989 34.3798 62.8501 35.3379 62.4066 36.0862L63.2669 36.596L64.1272 37.1058C64.7931 35.9821 65.0989 34.6522 65.0989 33.164H64.0989ZM63.2669 36.596L62.4066 36.0862C62.0141 36.7486 61.5452 37 60.9269 37V38V39C62.3193 39 63.4104 38.3154 64.1272 37.1058L63.2669 36.596Z" fill="#1B1B1B" mask="url(#path-1-outside-1_1954_5380)"/>
</svg>
