<svg width="65" height="40" viewBox="0 0 65 40" fill="none" xmlns="http://www.w3.org/2000/svg">
<mask id="path-1-outside-1_1954_5383" maskUnits="userSpaceOnUse" x="0" y="0" width="65" height="40" fill="black">
<rect fill="white" width="65" height="40"/>
<path d="M16.588 38.52C12.2547 38.52 8.70133 36.9253 5.928 33.736C3.18933 30.5467 1.82 25.884 1.82 19.748C1.82 13.612 3.20667 8.984 5.98 5.864C8.75333 2.70933 12.324 1.132 16.692 1.132C21.0947 1.132 24.648 2.692 27.352 5.812C30.056 8.932 31.408 13.6293 31.408 19.904C31.408 26.1787 30.0213 30.8587 27.248 33.944C24.5093 36.9947 20.956 38.52 16.588 38.52ZM16.588 11.116C15.2707 11.116 14.144 11.8787 13.208 13.404C12.3067 14.8947 11.856 17.0267 11.856 19.8C11.856 22.5733 12.2893 24.7053 13.156 26.196C14.0573 27.652 15.2013 28.38 16.588 28.38C18.0093 28.38 19.1533 27.6347 20.02 26.144C20.9213 24.6533 21.372 22.5213 21.372 19.748C21.372 16.9747 20.904 14.8427 19.968 13.352C19.0667 11.8613 17.94 11.116 16.588 11.116ZM39.4509 34.568C39.4509 33.5973 39.6936 32.5053 40.1789 31.292C40.6643 30.044 41.1323 29.056 41.5829 28.328C42.0336 27.5653 42.2936 27.184 42.3629 27.184C44.3736 28.3973 46.4883 29.004 48.7069 29.004C50.0936 29.004 51.2029 28.7267 52.0349 28.172C52.9016 27.6173 53.3349 26.8547 53.3349 25.884C53.3349 24.8787 52.9363 24.2373 52.1389 23.96C51.3763 23.6827 50.1456 23.492 48.4469 23.388H46.5749C46.1589 23.388 45.7603 22.8853 45.3789 21.88C45.0323 20.84 44.8589 19.8347 44.8589 18.864C44.8589 17.2347 45.3443 16.4027 46.3149 16.368L47.8229 16.316C48.7589 16.316 49.7296 16.056 50.7349 15.536C51.7749 14.9813 52.2949 14.288 52.2949 13.456C52.2949 12 50.9949 11.272 48.3949 11.272C46.4536 11.272 44.5816 11.6533 42.7789 12.416C41.2189 9.608 40.4389 7.424 40.4389 5.864C40.4389 4.26933 41.5309 3.07333 43.7149 2.276C45.9336 1.47866 48.7069 1.08 52.0349 1.08C55.3629 1.08 57.9629 1.77333 59.8349 3.16C61.7069 4.54666 62.6429 6.436 62.6429 8.828C62.6429 13.0227 60.8403 16.2467 57.2349 18.5C61.6029 20.268 63.7869 23.2667 63.7869 27.496C63.7869 30.7893 62.6256 33.4587 60.3029 35.504C57.9803 37.5147 54.6523 38.52 50.3189 38.52C47.5803 38.52 45.0843 38.1387 42.8309 37.376C40.5776 36.5787 39.4509 35.6427 39.4509 34.568Z"/>
</mask>
<path d="M5.928 33.736L5.16931 34.3875L5.17339 34.3922L5.928 33.736ZM5.98 5.864L6.72742 6.52837L6.73104 6.52425L5.98 5.864ZM27.352 5.812L26.5963 6.46693L27.352 5.812ZM27.248 33.944L26.5043 33.2755L26.5039 33.276L27.248 33.944ZM13.208 13.404L12.3557 12.881L12.3523 12.8866L13.208 13.404ZM13.156 26.196L12.2915 26.6986L12.2985 26.7106L12.3057 26.7224L13.156 26.196ZM20.02 26.144L19.1643 25.6266L19.1598 25.6339L19.1555 25.6414L20.02 26.144ZM19.968 13.352L19.1123 13.8694L19.1166 13.8766L19.1211 13.8838L19.968 13.352ZM16.588 38.52V37.52C12.5357 37.52 9.26058 36.0445 6.68261 33.0798L5.928 33.736L5.17339 34.3922C8.14209 37.8062 11.9736 39.52 16.588 39.52V38.52ZM5.928 33.736L6.68667 33.0845C4.16172 30.1441 2.82 25.7523 2.82 19.748H1.82H0.82C0.82 26.0157 2.21695 30.9493 5.16933 34.3875L5.928 33.736ZM1.82 19.748H2.82C2.82 13.7442 4.17866 9.3957 6.72741 6.52836L5.98 5.864L5.23259 5.19963C2.23467 8.5723 0.82 13.4798 0.82 19.748H1.82ZM5.98 5.864L6.73104 6.52425C9.30605 3.59518 12.5985 2.132 16.692 2.132V1.132V0.131997C12.0495 0.131997 8.20061 1.82348 5.22896 5.20374L5.98 5.864ZM16.692 1.132V2.132C20.8265 2.132 24.0961 3.58207 26.5963 6.46693L27.352 5.812L28.1077 5.15707C25.1999 1.80192 21.3628 0.131997 16.692 0.131997V1.132ZM27.352 5.812L26.5963 6.46693C29.0786 9.33111 30.408 13.7495 30.408 19.904H31.408H32.408C32.408 13.5092 31.0334 8.53289 28.1077 5.15707L27.352 5.812ZM31.408 19.904H30.408C30.408 26.0545 29.0458 30.4481 26.5043 33.2755L27.248 33.944L27.9917 34.6125C30.9969 31.2692 32.408 26.3028 32.408 19.904H31.408ZM27.248 33.944L26.5039 33.276C23.9684 36.1002 20.693 37.52 16.588 37.52V38.52V39.52C21.219 39.52 25.0502 37.8891 27.9921 34.612L27.248 33.944ZM16.588 11.116V10.116C14.8033 10.116 13.4007 11.178 12.3557 12.881L13.208 13.404L14.0603 13.927C14.8873 12.5793 15.7381 12.116 16.588 12.116V11.116ZM13.208 13.404L12.3523 12.8866C11.3162 14.6 10.856 16.9423 10.856 19.8H11.856H12.856C12.856 17.1111 13.2971 15.1893 14.0637 13.9214L13.208 13.404ZM11.856 19.8H10.856C10.856 22.6531 11.2976 24.9891 12.2915 26.6986L13.156 26.196L14.0205 25.6934C13.2811 24.4215 12.856 22.4935 12.856 19.8H11.856ZM13.156 26.196L12.3057 26.7224C13.3399 28.393 14.7705 29.38 16.588 29.38V28.38V27.38C15.6322 27.38 14.7747 26.911 14.0063 25.6696L13.156 26.196ZM16.588 28.38V29.38C18.4465 29.38 19.8837 28.3681 20.8845 26.6466L20.02 26.144L19.1555 25.6414C18.423 26.9012 17.5721 27.38 16.588 27.38V28.38ZM20.02 26.144L20.8757 26.6614C21.9118 24.948 22.372 22.6057 22.372 19.748H21.372H20.372C20.372 22.4369 19.9309 24.3587 19.1643 25.6266L20.02 26.144ZM21.372 19.748H22.372C22.372 16.8856 21.893 14.5373 20.8149 12.8202L19.968 13.352L19.1211 13.8838C19.915 15.1481 20.372 17.0638 20.372 19.748H21.372ZM19.968 13.352L20.8237 12.8346C19.801 11.1431 18.3917 10.116 16.588 10.116V11.116V12.116C17.4883 12.116 18.3324 12.5796 19.1123 13.8694L19.968 13.352ZM40.1789 31.292L41.1075 31.6634L41.1109 31.6544L40.1789 31.292ZM41.5829 28.328L42.4332 28.8544L42.4386 28.8456L42.4439 28.8367L41.5829 28.328ZM42.3629 27.184L42.8796 26.3278L42.6413 26.184H42.3629V27.184ZM52.0349 28.172L51.4959 27.3297L51.488 27.3348L51.4802 27.34L52.0349 28.172ZM52.1389 23.96L51.7972 24.8999L51.8104 24.9045L52.1389 23.96ZM48.4469 23.388L48.508 22.3899L48.4775 22.388H48.4469V23.388ZM45.3789 21.88L44.4303 22.1962L44.4367 22.2156L44.4439 22.2347L45.3789 21.88ZM46.3149 16.368L46.2805 15.3686L46.2792 15.3686L46.3149 16.368ZM47.8229 16.316V15.316H47.8057L47.7885 15.3166L47.8229 16.316ZM50.7349 15.536L51.1944 16.4243L51.2055 16.4184L50.7349 15.536ZM42.7789 12.416L41.9048 12.9016L42.3411 13.687L43.1686 13.337L42.7789 12.416ZM43.7149 2.276L43.3767 1.33491L43.372 1.33664L43.7149 2.276ZM59.8349 3.16L59.2397 3.96356L59.8349 3.16ZM57.2349 18.5L56.7049 17.652L55.0421 18.6912L56.8597 19.4269L57.2349 18.5ZM60.3029 35.504L60.9575 36.2601L60.9638 36.2545L60.3029 35.504ZM42.8309 37.376L42.4973 38.3188L42.5103 38.3232L42.8309 37.376ZM39.4509 34.568H40.4509C40.4509 33.7603 40.6539 32.7971 41.1074 31.6634L40.1789 31.292L39.2505 30.9206C38.7333 32.2136 38.4509 33.4344 38.4509 34.568H39.4509ZM40.1789 31.292L41.1109 31.6544C41.585 30.4355 42.0274 29.5098 42.4332 28.8544L41.5829 28.328L40.7327 27.8016C40.2371 28.6022 39.7435 29.6525 39.2469 30.9296L40.1789 31.292ZM41.5829 28.328L42.4439 28.8367C42.6662 28.4604 42.8308 28.1967 42.9422 28.0333C42.9692 27.9937 42.9908 27.9634 43.0074 27.941C43.0248 27.9176 43.0325 27.9085 43.032 27.9091C43.0315 27.9098 43.0261 27.916 43.0163 27.9259C43.0073 27.935 42.9881 27.954 42.9597 27.9771C42.9342 27.9979 42.8808 28.039 42.8032 28.0787C42.7337 28.1143 42.5772 28.184 42.3629 28.184V27.184V26.184C42.14 26.184 41.9733 26.2567 41.8922 26.2982C41.803 26.3439 41.7365 26.3939 41.6963 26.4266C41.6166 26.4916 41.5554 26.559 41.5184 26.6019C41.4399 26.6927 41.3617 26.8011 41.2897 26.9067C41.1411 27.1246 40.9503 27.4329 40.722 27.8193L41.5829 28.328ZM42.3629 27.184L41.8463 28.0402C44.0034 29.3419 46.2954 30.004 48.7069 30.004V29.004V28.004C46.6812 28.004 44.7439 27.4528 42.8796 26.3278L42.3629 27.184ZM48.7069 29.004V30.004C50.2172 30.004 51.5412 29.703 52.5896 29.0041L52.0349 28.172L51.4802 27.34C50.8647 27.7503 49.97 28.004 48.7069 28.004V29.004ZM52.0349 28.172L52.574 29.0143C53.7071 28.2891 54.3349 27.2195 54.3349 25.884H53.3349H52.3349C52.3349 26.4898 52.0961 26.9456 51.4959 27.3297L52.0349 28.172ZM53.3349 25.884H54.3349C54.3349 25.2549 54.2106 24.6445 53.8852 24.1211C53.5508 23.5831 53.0552 23.2199 52.4675 23.0155L52.1389 23.96L51.8104 24.9045C52.02 24.9774 52.1224 25.0736 52.1867 25.1769C52.2599 25.2948 52.3349 25.5077 52.3349 25.884H53.3349ZM52.1389 23.96L52.4807 23.0202C51.5744 22.6906 50.2215 22.4948 48.508 22.3899L48.4469 23.388L48.3858 24.3861C50.0697 24.4892 51.1782 24.6747 51.7972 24.8998L52.1389 23.96ZM48.4469 23.388V22.388H46.5749V23.388V24.388H48.4469V23.388ZM46.5749 23.388V22.388C46.8079 22.388 46.8615 22.5334 46.7474 22.3896C46.6407 22.2551 46.4892 21.9875 46.3139 21.5253L45.3789 21.88L44.4439 22.2347C44.65 22.7778 44.8885 23.2643 45.1804 23.6324C45.4651 23.9913 45.926 24.388 46.5749 24.388V23.388ZM45.3789 21.88L46.3276 21.5638C46.0106 20.6127 45.8589 19.7143 45.8589 18.864H44.8589H43.8589C43.8589 19.9551 44.0539 21.0673 44.4303 22.1962L45.3789 21.88ZM44.8589 18.864H45.8589C45.8589 18.1184 45.9753 17.7129 46.0867 17.5219C46.1345 17.44 46.172 17.4131 46.1894 17.4028C46.2072 17.3922 46.251 17.3709 46.3506 17.3674L46.3149 16.368L46.2792 15.3686C45.4547 15.3981 44.7764 15.7989 44.3592 16.5141C43.9852 17.1551 43.8589 17.9803 43.8589 18.864H44.8589ZM46.3149 16.368L46.3494 17.3674L47.8574 17.3154L47.8229 16.316L47.7885 15.3166L46.2805 15.3686L46.3149 16.368ZM47.8229 16.316V17.316C48.9489 17.316 50.0764 17.0025 51.1944 16.4242L50.7349 15.536L50.2755 14.6478C49.3828 15.1095 48.5689 15.316 47.8229 15.316V16.316ZM50.7349 15.536L51.2055 16.4184C52.4181 15.7717 53.2949 14.8036 53.2949 13.456H52.2949H51.2949C51.2949 13.7724 51.1318 14.191 50.2644 14.6536L50.7349 15.536ZM52.2949 13.456H53.2949C53.2949 12.9387 53.1778 12.4382 52.9105 11.989C52.6438 11.541 52.26 11.1983 51.8085 10.9455C50.9358 10.4568 49.7555 10.272 48.3949 10.272V11.272V12.272C49.6344 12.272 50.404 12.4512 50.8313 12.6905C51.0299 12.8017 51.1336 12.914 51.1919 13.012C51.2495 13.1088 51.2949 13.2453 51.2949 13.456H52.2949ZM48.3949 11.272V10.272C46.3186 10.272 44.3142 10.6807 42.3893 11.495L42.7789 12.416L43.1686 13.337C44.849 12.626 46.5886 12.272 48.3949 12.272V11.272ZM42.7789 12.416L43.6531 11.9304C42.1055 9.14474 41.4389 7.15224 41.4389 5.864H40.4389H39.4389C39.4389 7.69576 40.3323 10.0713 41.9048 12.9016L42.7789 12.416ZM40.4389 5.864H41.4389C41.4389 5.32045 41.6158 4.86219 41.9964 4.44527C42.3969 4.00662 43.0556 3.58126 44.0579 3.21536L43.7149 2.276L43.372 1.33664C42.1903 1.76807 41.211 2.33937 40.5195 3.09673C39.8081 3.87581 39.4389 4.81288 39.4389 5.864H40.4389ZM43.7149 2.276L44.0531 3.21707C46.1287 2.47117 48.7786 2.08 52.0349 2.08V1.08V0.079998C48.6353 0.079998 45.7385 0.486155 43.3767 1.33492L43.7149 2.276ZM52.0349 1.08V2.08C55.2374 2.08 57.5998 2.74877 59.2397 3.96356L59.8349 3.16L60.4302 2.35644C58.3261 0.797891 55.4884 0.079998 52.0349 0.079998V1.08ZM59.8349 3.16L59.2397 3.96356C60.8492 5.15575 61.6429 6.74285 61.6429 8.828H62.6429H63.6429C63.6429 6.12914 62.5647 3.93758 60.4302 2.35644L59.8349 3.16ZM62.6429 8.828H61.6429C61.6429 12.6722 60.0227 15.5784 56.7049 17.652L57.2349 18.5L57.7649 19.348C61.6578 16.915 63.6429 13.3731 63.6429 8.828H62.6429ZM57.2349 18.5L56.8597 19.4269C58.9169 20.2596 60.3847 21.3512 61.3406 22.6637C62.291 23.9687 62.7869 25.5621 62.7869 27.496H63.7869H64.7869C64.7869 25.2006 64.1908 23.18 62.9573 21.4863C61.7292 19.8001 59.921 18.5084 57.6101 17.5731L57.2349 18.5ZM63.7869 27.496H62.7869C62.7869 30.5229 61.734 32.9114 59.6421 34.7535L60.3029 35.504L60.9638 36.2545C63.5172 34.006 64.7869 31.0557 64.7869 27.496H63.7869ZM60.3029 35.504L59.6484 34.7479C57.5699 36.5473 54.5097 37.52 50.3189 37.52V38.52V39.52C54.7949 39.52 58.3907 38.482 60.9574 36.2601L60.3029 35.504ZM50.3189 38.52V37.52C47.6731 37.52 45.2873 37.1517 43.1515 36.4288L42.8309 37.376L42.5103 38.3232C44.8812 39.1257 47.4874 39.52 50.3189 39.52V38.52ZM42.8309 37.376L43.1645 36.4333C42.0879 36.0523 41.3683 35.6668 40.935 35.3068C40.5126 34.9559 40.4509 34.7102 40.4509 34.568H39.4509H38.4509C38.4509 35.5004 38.9526 36.2601 39.6569 36.8452C40.3503 37.4212 41.3206 37.9023 42.4974 38.3187L42.8309 37.376Z" fill="#1B1B1B" mask="url(#path-1-outside-1_1954_5383)"/>
</svg>
