<svg width="69" height="40" viewBox="0 0 69 40" fill="none" xmlns="http://www.w3.org/2000/svg">
<mask id="path-1-outside-1_1954_5384" maskUnits="userSpaceOnUse" x="0" y="0" width="69" height="40" fill="black">
<rect fill="white" width="69" height="40"/>
<path d="M16.588 38.52C12.2547 38.52 8.70133 36.9253 5.928 33.736C3.18933 30.5467 1.82 25.884 1.82 19.748C1.82 13.612 3.20667 8.984 5.98 5.864C8.75333 2.70933 12.324 1.132 16.692 1.132C21.0947 1.132 24.648 2.692 27.352 5.812C30.056 8.932 31.408 13.6293 31.408 19.904C31.408 26.1787 30.0213 30.8587 27.248 33.944C24.5093 36.9947 20.956 38.52 16.588 38.52ZM16.588 11.116C15.2707 11.116 14.144 11.8787 13.208 13.404C12.3067 14.8947 11.856 17.0267 11.856 19.8C11.856 22.5733 12.2893 24.7053 13.156 26.196C14.0573 27.652 15.2013 28.38 16.588 28.38C18.0093 28.38 19.1533 27.6347 20.02 26.144C20.9213 24.6533 21.372 22.5213 21.372 19.748C21.372 16.9747 20.904 14.8427 19.968 13.352C19.0667 11.8613 17.94 11.116 16.588 11.116ZM66.8549 22.452C67.2016 22.452 67.3749 23.7693 67.3749 26.404C67.3749 29.004 67.2016 30.304 66.8549 30.304L63.4229 30.356V36.908C63.4229 37.2893 62.7123 37.5667 61.2909 37.74C59.8696 37.9133 58.6389 38 57.5989 38L55.4669 37.896C53.6989 37.7573 52.8149 37.4453 52.8149 36.96V30.512H42.4669C41.5656 29.6107 40.7509 28.4493 40.0229 27.028C39.2949 25.572 38.9309 24.532 38.9309 23.908C38.9309 23.2493 39.0349 22.7293 39.2429 22.348L50.6309 2.172C50.7696 1.89467 51.8269 1.68667 53.8029 1.548C55.8136 1.40933 57.9109 1.34 60.0949 1.34C62.2789 1.34 63.3709 1.42666 63.3709 1.6L63.4229 22.452H66.8549ZM54.3229 22.504V11.636L48.2389 22.504H54.3229Z"/>
</mask>
<path d="M5.928 33.736L5.16931 34.3875L5.17339 34.3922L5.928 33.736ZM5.98 5.864L6.72742 6.52837L6.73104 6.52425L5.98 5.864ZM27.352 5.812L26.5963 6.46693L27.352 5.812ZM27.248 33.944L26.5043 33.2755L26.5039 33.276L27.248 33.944ZM13.208 13.404L12.3557 12.881L12.3523 12.8866L13.208 13.404ZM13.156 26.196L12.2915 26.6986L12.2985 26.7106L12.3057 26.7224L13.156 26.196ZM20.02 26.144L19.1643 25.6266L19.1598 25.6339L19.1555 25.6414L20.02 26.144ZM19.968 13.352L19.1123 13.8694L19.1166 13.8766L19.1211 13.8838L19.968 13.352ZM16.588 38.52V37.52C12.5357 37.52 9.26058 36.0445 6.68261 33.0798L5.928 33.736L5.17339 34.3922C8.14209 37.8062 11.9736 39.52 16.588 39.52V38.52ZM5.928 33.736L6.68667 33.0845C4.16172 30.1441 2.82 25.7523 2.82 19.748H1.82H0.82C0.82 26.0157 2.21695 30.9493 5.16933 34.3875L5.928 33.736ZM1.82 19.748H2.82C2.82 13.7442 4.17866 9.3957 6.72741 6.52836L5.98 5.864L5.23259 5.19963C2.23467 8.5723 0.82 13.4798 0.82 19.748H1.82ZM5.98 5.864L6.73104 6.52425C9.30605 3.59518 12.5985 2.132 16.692 2.132V1.132V0.131997C12.0495 0.131997 8.20061 1.82348 5.22896 5.20374L5.98 5.864ZM16.692 1.132V2.132C20.8265 2.132 24.0961 3.58207 26.5963 6.46693L27.352 5.812L28.1077 5.15707C25.1999 1.80192 21.3628 0.131997 16.692 0.131997V1.132ZM27.352 5.812L26.5963 6.46693C29.0786 9.33111 30.408 13.7495 30.408 19.904H31.408H32.408C32.408 13.5092 31.0334 8.53289 28.1077 5.15707L27.352 5.812ZM31.408 19.904H30.408C30.408 26.0545 29.0458 30.4481 26.5043 33.2755L27.248 33.944L27.9917 34.6125C30.9969 31.2692 32.408 26.3028 32.408 19.904H31.408ZM27.248 33.944L26.5039 33.276C23.9684 36.1002 20.693 37.52 16.588 37.52V38.52V39.52C21.219 39.52 25.0502 37.8891 27.9921 34.612L27.248 33.944ZM16.588 11.116V10.116C14.8033 10.116 13.4007 11.178 12.3557 12.881L13.208 13.404L14.0603 13.927C14.8873 12.5793 15.7381 12.116 16.588 12.116V11.116ZM13.208 13.404L12.3523 12.8866C11.3162 14.6 10.856 16.9423 10.856 19.8H11.856H12.856C12.856 17.1111 13.2971 15.1893 14.0637 13.9214L13.208 13.404ZM11.856 19.8H10.856C10.856 22.6531 11.2976 24.9891 12.2915 26.6986L13.156 26.196L14.0205 25.6934C13.2811 24.4215 12.856 22.4935 12.856 19.8H11.856ZM13.156 26.196L12.3057 26.7224C13.3399 28.393 14.7705 29.38 16.588 29.38V28.38V27.38C15.6322 27.38 14.7747 26.911 14.0063 25.6696L13.156 26.196ZM16.588 28.38V29.38C18.4465 29.38 19.8837 28.3681 20.8845 26.6466L20.02 26.144L19.1555 25.6414C18.423 26.9012 17.5721 27.38 16.588 27.38V28.38ZM20.02 26.144L20.8757 26.6614C21.9118 24.948 22.372 22.6057 22.372 19.748H21.372H20.372C20.372 22.4369 19.9309 24.3587 19.1643 25.6266L20.02 26.144ZM21.372 19.748H22.372C22.372 16.8856 21.893 14.5373 20.8149 12.8202L19.968 13.352L19.1211 13.8838C19.915 15.1481 20.372 17.0638 20.372 19.748H21.372ZM19.968 13.352L20.8237 12.8346C19.801 11.1431 18.3917 10.116 16.588 10.116V11.116V12.116C17.4883 12.116 18.3324 12.5796 19.1123 13.8694L19.968 13.352ZM66.8549 30.304V29.304H66.8474L66.8398 29.3041L66.8549 30.304ZM63.4229 30.356L63.4078 29.3561L62.4229 29.371V30.356H63.4229ZM57.5989 38L57.5502 38.9988L57.5746 39H57.5989V38ZM55.4669 37.896L55.3887 38.8929L55.4035 38.8941L55.4182 38.8948L55.4669 37.896ZM52.8149 30.512H53.8149V29.512H52.8149V30.512ZM42.4669 30.512L41.7598 31.2191L42.0527 31.512H42.4669V30.512ZM40.0229 27.028L39.1285 27.4752L39.1329 27.4839L40.0229 27.028ZM39.2429 22.348L38.3721 21.8565L38.3685 21.8628L38.365 21.8691L39.2429 22.348ZM50.6309 2.172L51.5018 2.66354L51.5141 2.64167L51.5254 2.61921L50.6309 2.172ZM53.8029 1.548L53.7341 0.550367L53.7329 0.550451L53.8029 1.548ZM63.3709 1.6H62.3709L62.3709 1.60249L63.3709 1.6ZM63.4229 22.452L62.4229 22.4545L62.4254 23.452H63.4229V22.452ZM54.3229 22.504V23.504H55.3229V22.504H54.3229ZM54.3229 11.636H55.3229V7.80249L53.4504 11.1475L54.3229 11.636ZM48.2389 22.504L47.3664 22.0155L46.5331 23.504H48.2389V22.504ZM66.8549 22.452V23.452C66.5429 23.452 66.3343 23.2922 66.2413 23.1912C66.1616 23.1047 66.1418 23.0395 66.1523 23.0662C66.1716 23.115 66.2132 23.2647 66.2535 23.5705C66.3313 24.162 66.3749 25.0967 66.3749 26.404H67.3749H68.3749C68.3749 25.0766 68.3319 24.0353 68.2364 23.3095C68.19 22.9567 68.1233 22.6123 68.0126 22.3318C67.9581 22.1938 67.8679 22.0051 67.7124 21.8363C67.5435 21.653 67.2537 21.452 66.8549 21.452V22.452ZM67.3749 26.404H66.3749C66.3749 27.6938 66.3313 28.6148 66.2537 29.1968C66.2136 29.4979 66.1722 29.6432 66.154 29.6889C66.1441 29.7136 66.1648 29.6475 66.2458 29.5607C66.3404 29.4593 66.5479 29.304 66.8549 29.304V30.304V31.304C67.2487 31.304 67.5374 31.1081 67.7079 30.9254C67.8646 30.7574 67.9558 30.5694 68.0109 30.4316C68.1227 30.1523 68.1896 29.8101 68.2362 29.4612C68.3319 28.7432 68.3749 27.7142 68.3749 26.404H67.3749ZM66.8549 30.304L66.8398 29.3041L63.4078 29.3561L63.4229 30.356L63.4381 31.3559L66.8701 31.3039L66.8549 30.304ZM63.4229 30.356H62.4229V36.908H63.4229H64.4229V30.356H63.4229ZM63.4229 36.908H62.4229C62.4229 36.6539 62.5533 36.4935 62.6099 36.4411C62.6506 36.4034 62.6467 36.4235 62.5264 36.4704C62.2898 36.5628 61.8565 36.6636 61.1699 36.7474L61.2909 37.74L61.412 38.7326C62.1467 38.643 62.7795 38.5186 63.2535 38.3336C63.4885 38.2418 63.7511 38.1103 63.9695 37.9079C64.2037 37.6908 64.4229 37.3528 64.4229 36.908H63.4229ZM61.2909 37.74L61.1699 36.7474C59.7749 36.9175 58.5866 37 57.5989 37V38V39C58.6912 39 59.9643 38.9092 61.412 38.7326L61.2909 37.74ZM57.5989 38L57.6477 37.0012L55.5157 36.8972L55.4669 37.896L55.4182 38.8948L57.5502 38.9988L57.5989 38ZM55.4669 37.896L55.5451 36.8991C54.6854 36.8316 54.1272 36.7267 53.8108 36.615C53.6506 36.5585 53.623 36.5241 53.6505 36.5489C53.6987 36.5925 53.8149 36.7356 53.8149 36.96H52.8149H51.8149C51.8149 37.427 52.0416 37.7912 52.3109 38.0341C52.5594 38.2582 52.8632 38.4015 53.1451 38.501C53.7127 38.7013 54.4805 38.8217 55.3887 38.8929L55.4669 37.896ZM52.8149 36.96H53.8149V30.512H52.8149H51.8149V36.96H52.8149ZM52.8149 30.512V29.512H42.4669V30.512V31.512H52.8149V30.512ZM42.4669 30.512L43.174 29.8049C42.3623 28.9932 41.6049 27.9231 40.913 26.5721L40.0229 27.028L39.1329 27.4839C39.8969 28.9756 40.7689 30.2282 41.7598 31.2191L42.4669 30.512ZM40.0229 27.028L40.9174 26.5808C40.5643 25.8746 40.3109 25.2917 40.1478 24.8256C39.9791 24.3435 39.9309 24.0527 39.9309 23.908H38.9309H37.9309C37.9309 24.3873 38.0648 24.9285 38.2601 25.4863C38.461 26.0603 38.7536 26.7254 39.1285 27.4752L40.0229 27.028ZM38.9309 23.908H39.9309C39.9309 23.3374 40.0239 23.0046 40.1208 22.8269L39.2429 22.348L38.365 21.8691C38.046 22.454 37.9309 23.1613 37.9309 23.908H38.9309ZM39.2429 22.348L40.1138 22.8395L51.5018 2.66354L50.6309 2.172L49.7601 1.68046L38.3721 21.8565L39.2429 22.348ZM50.6309 2.172L51.5254 2.61921C51.3822 2.9055 51.1554 2.95547 51.2832 2.90361C51.3475 2.87753 51.4836 2.83588 51.721 2.78919C52.1885 2.69722 52.8982 2.61395 53.8729 2.54554L53.8029 1.548L53.7329 0.550451C52.7317 0.620713 51.9247 0.710777 51.3349 0.826804C51.0436 0.88412 50.7659 0.955133 50.5312 1.05039C50.36 1.11986 49.949 1.29983 49.7365 1.72479L50.6309 2.172ZM53.8029 1.548L53.8717 2.54563C55.8577 2.40867 57.932 2.34 60.0949 2.34V1.34V0.339998C57.8899 0.339998 55.7695 0.409997 53.7341 0.550368L53.8029 1.548ZM60.0949 1.34V2.34C61.181 2.34 61.9677 2.36178 62.4728 2.40186C62.7331 2.42252 62.8754 2.44498 62.9346 2.45905C62.9726 2.46811 62.9193 2.46053 62.8341 2.41322C62.8072 2.39827 62.3709 2.16187 62.3709 1.6H63.3709H64.3709C64.3709 0.994793 63.9005 0.717762 63.8054 0.664903C63.652 0.579671 63.4963 0.53688 63.3978 0.513442C63.1839 0.462519 62.9168 0.43081 62.6311 0.408132C62.0441 0.361552 61.1929 0.339998 60.0949 0.339998V1.34ZM63.3709 1.6L62.3709 1.60249L62.4229 22.4545L63.4229 22.452L64.4229 22.4495L64.3709 1.5975L63.3709 1.6ZM63.4229 22.452V23.452H66.8549V22.452V21.452H63.4229V22.452ZM54.3229 22.504H55.3229V11.636H54.3229H53.3229V22.504H54.3229ZM54.3229 11.636L53.4504 11.1475L47.3664 22.0155L48.2389 22.504L49.1115 22.9925L55.1955 12.1245L54.3229 11.636ZM48.2389 22.504V23.504H54.3229V22.504V21.504H48.2389V22.504Z" fill="#1B1B1B" mask="url(#path-1-outside-1_1954_5384)"/>
</svg>
