<svg width="52" height="52" viewBox="0 0 52 52" fill="none" xmlns="http://www.w3.org/2000/svg">
<rect width="52" height="52" rx="16" fill="white" fill-opacity="0.2"/>
<path d="M25.9997 10C17.1634 10 10 17.1898 10 26.0588C10 33.5897 15.166 39.9091 22.1348 41.6448V30.9663H18.8357V26.0588H22.1348V23.9442C22.1348 18.4784 24.5994 15.945 29.9458 15.945C30.9596 15.945 32.7087 16.1447 33.4242 16.3439V20.7921C33.0466 20.7523 32.3906 20.7324 31.5759 20.7324C28.9526 20.7324 27.9388 21.73 27.9388 24.3231V26.0588H33.165L32.2671 30.9663H27.9388V42C35.8612 41.0397 42 34.2693 42 26.0588C41.9994 17.1898 34.836 10 25.9997 10Z" fill="#FDFDFD"/>
</svg>
