<svg width="56" height="60" viewBox="0 0 56 60" fill="none" xmlns="http://www.w3.org/2000/svg">
<path fill-rule="evenodd" clip-rule="evenodd" d="M42.3638 32.9102C45.0608 32.9102 47.6972 33.7045 49.9396 35.1929C52.1821 36.6812 53.9299 38.7966 54.962 41.2717C55.9941 43.7467 56.2641 46.4701 55.738 49.0976C55.2118 51.725 53.9131 54.1385 52.006 56.0328C50.099 57.9271 47.6692 59.2171 45.0241 59.7397C42.3789 60.2624 39.6371 59.9941 37.1454 58.9689C34.6537 57.9438 32.524 56.2077 31.0256 53.9802C29.5273 51.7528 28.7275 49.134 28.7275 46.4551C28.7275 42.8627 30.1642 39.4175 32.7215 36.8774C35.2788 34.3372 38.7472 32.9102 42.3638 32.9102Z" fill="#4BA042"/>
<path d="M22.809 51.001C23.1766 51.001 23.5292 51.146 23.7892 51.4043C24.0492 51.6625 24.1952 52.0127 24.1952 52.3779C24.1952 52.7431 24.0492 53.0934 23.7892 53.3516C23.5292 53.6098 23.1766 53.7549 22.809 53.7549H3.22963C2.37393 53.7549 1.55321 53.4176 0.947674 52.817C0.342141 52.2164 0.00130244 51.4017 0 50.5518V3.18849C0.00560368 2.3448 0.346608 1.53748 0.948736 0.942394C1.24693 0.642809 1.60219 0.40519 1.99379 0.243394C2.38539 0.0815977 2.80551 -0.00113774 3.22963 1.18167e-05H42.875C43.7308 0.00258767 44.5507 0.3414 45.1558 0.942461C45.7609 1.54352 46.102 2.358 46.1046 3.20802V27.3438C46.1159 27.5318 46.0883 27.7202 46.0236 27.8972C45.959 28.0743 45.8585 28.2364 45.7284 28.3735C45.5984 28.5106 45.4415 28.6198 45.2673 28.6945C45.0932 28.7692 44.9056 28.8077 44.7159 28.8077C44.5263 28.8077 44.3386 28.7692 44.1645 28.6945C43.9904 28.6198 43.8335 28.5106 43.7034 28.3735C43.5734 28.2364 43.4729 28.0743 43.4082 27.8972C43.3435 27.7202 43.316 27.5318 43.3272 27.3438V3.20802C43.3277 3.14897 43.3162 3.09044 43.2934 3.03591C43.2706 2.98137 43.237 2.93197 43.1945 2.89064C43.11 2.80546 42.9954 2.7564 42.875 2.75392H3.22963C3.10885 2.75677 2.99336 2.8037 2.9052 2.88575C2.82438 2.97405 2.77891 3.08869 2.77739 3.20802V50.5469C2.77701 50.6052 2.78858 50.663 2.81139 50.7167C2.83421 50.7704 2.8678 50.819 2.91011 50.8594C2.99753 50.9432 3.11311 50.9919 3.23455 50.9961H22.809V51.001ZM11.6945 31.7383V28.9551H32.2029V31.7383H11.6945ZM11.6945 22.6709V19.8926H34.4101V22.6465L11.6945 22.6709ZM11.6945 13.6084V10.8252H34.4101V13.584L11.6945 13.6084ZM11.6945 40.835V38.0225H24.0281V40.8106L11.6945 40.835Z" fill="url(#paint0_linear_2522_4133)"/>
<path d="M34.4789 45.5518L37.2612 45.5127L37.4677 45.5664C38.0292 45.888 38.5606 46.2589 39.0555 46.6748C39.4176 46.9775 39.7592 47.3038 40.0779 47.6514C41.0374 46.116 42.1017 44.6477 43.2633 43.2568C44.4692 41.8122 45.7821 40.4592 47.191 39.209L47.4614 39.1064H50.4993L49.8848 39.7803C48.0315 41.8144 46.3107 43.9639 44.7331 46.2158C43.2064 48.4052 41.8206 50.6884 40.5843 53.0518L40.2058 53.7842L39.8518 53.042C39.2308 51.6906 38.4431 50.4212 37.507 49.2627C36.5739 48.1138 35.4777 47.1055 34.2528 46.2695L34.4789 45.5322V45.5518Z" fill="white"/>
<defs>
<linearGradient id="paint0_linear_2522_4133" x1="28" y1="0" x2="28" y2="60" gradientUnits="userSpaceOnUse">
<stop stop-color="#416D95"/>
<stop offset="1" stop-color="#74AFAD"/>
</linearGradient>
</defs>
</svg>
