<svg width="30" height="28" viewBox="0 0 30 28" fill="none" xmlns="http://www.w3.org/2000/svg">
<path d="M15.001 27.4478L20.377 10.9038H9.625L15.001 27.4478Z" fill="#E24329"/>
<path d="M15.0018 27.4478L9.62584 10.9038H2.08984L15.0018 27.4478Z" fill="#FC6D26"/>
<path d="M2.08985 10.9038L0.457854 15.9358C0.305854 16.3918 0.473854 16.8958 0.865854 17.1838L15.0019 27.4478L2.08985 10.9038Z" fill="#FCA326"/>
<path d="M2.08984 10.9038H9.62584L6.38584 0.935758C6.21784 0.423758 5.48984 0.423758 5.32984 0.935758L2.08984 10.9038Z" fill="#E24329"/>
<path d="M15 27.4478L20.376 10.9038H27.912L15 27.4478Z" fill="#FC6D26"/>
<path d="M27.912 10.9038L29.544 15.9358C29.696 16.3918 29.528 16.8958 29.136 17.1838L15 27.4478L27.912 10.9038Z" fill="#FCA326"/>
<path d="M27.9149 10.9038H20.3789L23.6189 0.935758C23.7869 0.423758 24.5149 0.423758 24.6749 0.935758L27.9149 10.9038Z" fill="#E24329"/>
</svg>
