<svg width="32" height="32" viewBox="0 0 32 32" fill="none" xmlns="http://www.w3.org/2000/svg">
<rect width="32" height="32" rx="6" fill="url(#paint0_linear_246_1154)"/>
<path d="M13.1887 16.0974C13.1887 14.4889 14.493 13.1847 16.1024 13.1847C17.7118 13.1847 19.0168 14.4889 19.0168 16.0974C19.0168 17.7058 17.7118 19.01 16.1024 19.01C14.493 19.01 13.1887 17.7058 13.1887 16.0974ZM11.6132 16.0974C11.6132 18.5753 13.623 20.5839 16.1024 20.5839C18.5817 20.5839 20.5915 18.5753 20.5915 16.0974C20.5915 13.6195 18.5817 11.6109 16.1024 11.6109C13.623 11.6109 11.6132 13.6195 11.6132 16.0974ZM19.7202 11.433C19.7201 11.6404 19.7815 11.8431 19.8967 12.0156C20.0119 12.188 20.1757 12.3225 20.3674 12.4019C20.5591 12.4814 20.77 12.5022 20.9735 12.4618C21.177 12.4215 21.364 12.3217 21.5108 12.1751C21.6576 12.0285 21.7576 11.8417 21.7981 11.6384C21.8387 11.435 21.818 11.2242 21.7387 11.0326C21.6593 10.841 21.5249 10.6772 21.3525 10.5619C21.18 10.4466 20.9772 10.385 20.7697 10.3849H20.7693C20.4911 10.3851 20.2244 10.4955 20.0277 10.692C19.831 10.8885 19.7204 11.155 19.7202 11.433ZM12.5704 23.2093C11.718 23.1705 11.2548 23.0286 10.9469 22.9087C10.5387 22.7499 10.2475 22.5608 9.94128 22.2552C9.63508 21.9496 9.44555 21.6588 9.28734 21.2509C9.16732 20.9433 9.02535 20.4802 8.9866 19.6283C8.94422 18.7074 8.93575 18.4307 8.93575 16.0974C8.93575 13.7642 8.94492 13.4883 8.9866 12.5665C9.02542 11.7147 9.16844 11.2525 9.28734 10.944C9.44625 10.5361 9.6355 10.245 9.94128 9.939C10.2471 9.63299 10.538 9.44356 10.9469 9.28545C11.2546 9.16551 11.718 9.02361 12.5704 8.98489C13.4919 8.94253 13.7688 8.93407 16.1024 8.93407C18.436 8.93407 18.7131 8.94323 19.6354 8.98489C20.4878 9.02368 20.9503 9.16662 21.2589 9.28545C21.6671 9.44356 21.9583 9.6334 22.2645 9.939C22.5707 10.2446 22.7596 10.5361 22.9185 10.944C23.0385 11.2515 23.1804 11.7147 23.2192 12.5665C23.2616 13.4883 23.27 13.7642 23.27 16.0974C23.27 18.4307 23.2616 18.7066 23.2192 19.6283C23.1804 20.4802 23.0377 20.9432 22.9185 21.2509C22.7596 21.6588 22.5703 21.9499 22.2645 22.2552C21.9587 22.5605 21.6671 22.7499 21.2589 22.9087C20.9512 23.0287 20.4878 23.1706 19.6354 23.2093C18.7139 23.2517 18.437 23.2601 16.1024 23.2601C13.7677 23.2601 13.4916 23.2517 12.5704 23.2093ZM12.498 7.41302C11.5673 7.45538 10.9314 7.60286 10.376 7.81885C9.80077 8.04189 9.31385 8.34113 8.82728 8.82664C8.3407 9.31215 8.04206 9.79955 7.81888 10.3744C7.60277 10.9298 7.45519 11.565 7.41281 12.4952C7.36972 13.4268 7.35986 13.7246 7.35986 16.0974C7.35986 18.4701 7.36972 18.768 7.41281 19.6996C7.45519 20.6298 7.60277 21.2649 7.81888 21.8204C8.04206 22.3948 8.34077 22.8828 8.82728 23.3681C9.31378 23.8534 9.80077 24.1522 10.376 24.3759C10.9324 24.5919 11.5673 24.7394 12.498 24.7817C13.4307 24.8241 13.7282 24.8346 16.1024 24.8346C18.4766 24.8346 18.7746 24.8248 19.7067 24.7817C20.6375 24.7394 21.273 24.5919 21.8288 24.3759C22.4036 24.1522 22.8909 23.8536 23.3775 23.3681C23.864 22.8826 24.1621 22.3948 24.3859 21.8204C24.602 21.2649 24.7503 20.6297 24.7919 19.6996C24.8343 18.7673 24.8442 18.4701 24.8442 16.0974C24.8442 13.7246 24.8343 13.4268 24.7919 12.4952C24.7496 11.565 24.602 10.9295 24.3859 10.3744C24.1621 9.7999 23.8633 9.31292 23.3775 8.82664C22.8917 8.34036 22.4036 8.04189 21.8295 7.81885C21.273 7.60286 20.6374 7.45468 19.7074 7.41302C18.7753 7.37066 18.4773 7.36011 16.1031 7.36011C13.7289 7.36011 13.4307 7.36996 12.498 7.41302Z" fill="white"/>
<path d="M13.1887 16.0974C13.1887 14.4889 14.493 13.1847 16.1024 13.1847C17.7118 13.1847 19.0168 14.4889 19.0168 16.0974C19.0168 17.7058 17.7118 19.01 16.1024 19.01C14.493 19.01 13.1887 17.7058 13.1887 16.0974ZM11.6132 16.0974C11.6132 18.5753 13.623 20.5839 16.1024 20.5839C18.5817 20.5839 20.5915 18.5753 20.5915 16.0974C20.5915 13.6195 18.5817 11.6109 16.1024 11.6109C13.623 11.6109 11.6132 13.6195 11.6132 16.0974ZM19.7202 11.433C19.7201 11.6404 19.7815 11.8431 19.8967 12.0156C20.0119 12.188 20.1757 12.3225 20.3674 12.4019C20.5591 12.4814 20.77 12.5022 20.9735 12.4618C21.177 12.4215 21.364 12.3217 21.5108 12.1751C21.6576 12.0285 21.7576 11.8417 21.7981 11.6384C21.8387 11.435 21.818 11.2242 21.7387 11.0326C21.6593 10.841 21.5249 10.6772 21.3525 10.5619C21.18 10.4466 20.9772 10.385 20.7697 10.3849H20.7693C20.4911 10.3851 20.2244 10.4955 20.0277 10.692C19.831 10.8885 19.7204 11.155 19.7202 11.433ZM12.5704 23.2093C11.718 23.1705 11.2548 23.0286 10.9469 22.9087C10.5387 22.7499 10.2475 22.5608 9.94128 22.2552C9.63508 21.9496 9.44555 21.6588 9.28734 21.2509C9.16732 20.9433 9.02535 20.4802 8.9866 19.6283C8.94422 18.7074 8.93575 18.4307 8.93575 16.0974C8.93575 13.7642 8.94492 13.4883 8.9866 12.5665C9.02542 11.7147 9.16844 11.2525 9.28734 10.944C9.44625 10.5361 9.6355 10.245 9.94128 9.939C10.2471 9.63299 10.538 9.44356 10.9469 9.28545C11.2546 9.16551 11.718 9.02361 12.5704 8.98489C13.4919 8.94253 13.7688 8.93407 16.1024 8.93407C18.436 8.93407 18.7131 8.94323 19.6354 8.98489C20.4878 9.02368 20.9503 9.16662 21.2589 9.28545C21.6671 9.44356 21.9583 9.6334 22.2645 9.939C22.5707 10.2446 22.7596 10.5361 22.9185 10.944C23.0385 11.2515 23.1804 11.7147 23.2192 12.5665C23.2616 13.4883 23.27 13.7642 23.27 16.0974C23.27 18.4307 23.2616 18.7066 23.2192 19.6283C23.1804 20.4802 23.0377 20.9432 22.9185 21.2509C22.7596 21.6588 22.5703 21.9499 22.2645 22.2552C21.9587 22.5605 21.6671 22.7499 21.2589 22.9087C20.9512 23.0287 20.4878 23.1706 19.6354 23.2093C18.7139 23.2517 18.437 23.2601 16.1024 23.2601C13.7677 23.2601 13.4916 23.2517 12.5704 23.2093ZM12.498 7.41302C11.5673 7.45538 10.9314 7.60286 10.376 7.81885C9.80077 8.04189 9.31385 8.34113 8.82728 8.82664C8.3407 9.31215 8.04206 9.79955 7.81888 10.3744C7.60277 10.9298 7.45519 11.565 7.41281 12.4952C7.36972 13.4268 7.35986 13.7246 7.35986 16.0974C7.35986 18.4701 7.36972 18.768 7.41281 19.6996C7.45519 20.6298 7.60277 21.2649 7.81888 21.8204C8.04206 22.3948 8.34077 22.8828 8.82728 23.3681C9.31378 23.8534 9.80077 24.1522 10.376 24.3759C10.9324 24.5919 11.5673 24.7394 12.498 24.7817C13.4307 24.8241 13.7282 24.8346 16.1024 24.8346C18.4766 24.8346 18.7746 24.8248 19.7067 24.7817C20.6375 24.7394 21.273 24.5919 21.8288 24.3759C22.4036 24.1522 22.8909 23.8536 23.3775 23.3681C23.864 22.8826 24.1621 22.3948 24.3859 21.8204C24.602 21.2649 24.7503 20.6297 24.7919 19.6996C24.8343 18.7673 24.8442 18.4701 24.8442 16.0974C24.8442 13.7246 24.8343 13.4268 24.7919 12.4952C24.7496 11.565 24.602 10.9295 24.3859 10.3744C24.1621 9.7999 23.8633 9.31292 23.3775 8.82664C22.8917 8.34036 22.4036 8.04189 21.8295 7.81885C21.273 7.60286 20.6374 7.45468 19.7074 7.41302C18.7753 7.37066 18.4773 7.36011 16.1031 7.36011C13.7289 7.36011 13.4307 7.36996 12.498 7.41302Z" fill="white"/>
<defs>
<linearGradient id="paint0_linear_246_1154" x1="31.385" y1="32" x2="-0.615039" y2="-8.6135e-07" gradientUnits="userSpaceOnUse">
<stop stop-color="#FBE18A"/>
<stop offset="0.21" stop-color="#FCBB45"/>
<stop offset="0.38" stop-color="#F75274"/>
<stop offset="0.52" stop-color="#D53692"/>
<stop offset="0.74" stop-color="#8F39CE"/>
<stop offset="1" stop-color="#5B4FE9"/>
</linearGradient>
</defs>
</svg>
