<svg width="52" height="52" viewBox="0 0 52 52" fill="none" xmlns="http://www.w3.org/2000/svg">
<rect width="52" height="52" rx="16" fill="white" fill-opacity="0.2"/>
<path d="M26.0094 12.8818C30.2869 12.8818 30.7934 12.9006 32.4757 12.9756C34.0391 13.0443 34.8833 13.3069 35.4462 13.5257C36.1903 13.8132 36.7282 14.1633 37.2847 14.7197C37.8476 15.2823 38.1915 15.8136 38.4792 16.5575C38.6981 17.1201 38.9607 17.9703 39.0295 19.5269C39.1046 21.2147 39.1233 21.721 39.1233 25.9906C39.1233 30.2665 39.1046 30.7728 39.0295 32.4544C38.9607 34.0172 38.6981 34.8611 38.4792 35.4237C38.1915 36.1676 37.8413 36.7052 37.2847 37.2616C36.7219 37.8242 36.1903 38.168 35.4462 38.4556C34.8833 38.6744 34.0328 38.9369 32.4757 39.0057C30.7872 39.0807 30.2806 39.0994 26.0094 39.0994C21.7319 39.0994 21.2253 39.0807 19.5431 39.0057C17.9797 38.9369 17.1354 38.6744 16.5726 38.4556C15.8284 38.168 15.2906 37.8179 14.734 37.2616C14.1712 36.699 13.8272 36.1676 13.5396 35.4237C13.3207 34.8611 13.058 34.0109 12.9893 32.4544C12.9142 30.7666 12.8954 30.2602 12.8954 25.9906C12.8954 21.7148 12.9142 21.2084 12.9893 19.5269C13.058 17.9641 13.3207 17.1201 13.5396 16.5575C13.8272 15.8136 14.1774 15.276 14.734 14.7197C15.2969 14.1571 15.8284 13.8132 16.5726 13.5257C17.1354 13.3069 17.9859 13.0443 19.5431 12.9756C21.2253 12.9006 21.7319 12.8818 26.0094 12.8818ZM26.0094 10C21.6631 10 21.119 10.0188 19.4118 10.0938C17.7108 10.1688 16.5413 10.4438 15.5282 10.8377C14.4714 11.2502 13.5771 11.7941 12.6891 12.688C11.7948 13.5757 11.2507 14.4696 10.838 15.5198C10.444 16.5388 10.1688 17.7015 10.0938 19.4018C10.0188 21.1147 10 21.6585 10 26.0031C10 30.3477 10.0188 30.8916 10.0938 32.5982C10.1688 34.2985 10.444 35.4675 10.838 36.4802C11.2507 37.5366 11.7948 38.4306 12.6891 39.3182C13.5771 40.2059 14.4714 40.756 15.522 41.1623C16.5413 41.5562 17.7045 41.8312 19.4055 41.9062C21.1128 41.9812 21.6568 42 26.0031 42C30.3494 42 30.8935 41.9812 32.6007 41.9062C34.3017 41.8312 35.4712 41.5562 36.4843 41.1623C37.5349 40.756 38.4292 40.2059 39.3172 39.3182C40.2052 38.4306 40.7555 37.5366 41.162 36.4864C41.556 35.4675 41.8312 34.3047 41.9062 32.6044C41.9812 30.8978 42 30.354 42 26.0094C42 21.6648 41.9812 21.1209 41.9062 19.4143C41.8312 17.714 41.556 16.545 41.162 15.5323C40.768 14.4696 40.224 13.5757 39.3297 12.688C38.4417 11.8004 37.5474 11.2502 36.4968 10.8439C35.4774 10.4501 34.3142 10.175 32.6132 10.1C30.8997 10.0188 30.3557 10 26.0094 10Z" fill="#FDFDFD"/>
<path d="M26.0094 17.7828C21.4692 17.7828 17.7858 21.4647 17.7858 26.0031C17.7858 30.5415 21.4692 34.2235 26.0094 34.2235C30.5495 34.2235 34.2329 30.5415 34.2329 26.0031C34.2329 21.4647 30.5495 17.7828 26.0094 17.7828ZM26.0094 31.3354C23.0639 31.3354 20.675 28.9475 20.675 26.0031C20.675 23.0588 23.0639 20.6708 26.0094 20.6708C28.9549 20.6708 31.3438 23.0588 31.3438 26.0031C31.3438 28.9475 28.9549 31.3354 26.0094 31.3354Z" fill="#FDFDFD"/>
<path d="M36.478 17.4576C36.478 18.5204 35.615 19.3768 34.5581 19.3768C33.495 19.3768 32.6383 18.5141 32.6383 17.4576C32.6383 16.3949 33.5013 15.5385 34.5581 15.5385C35.615 15.5385 36.478 16.4012 36.478 17.4576Z" fill="#FDFDFD"/>
</svg>
