<svg width="52" height="52" viewBox="0 0 52 52" fill="none" xmlns="http://www.w3.org/2000/svg">
<rect width="52" height="52" rx="16" fill="white" fill-opacity="0.2"/>
<path d="M39.6313 10H12.3625C11.0562 10 10 11.0313 10 12.3063V39.6875C10 40.9625 11.0562 42 12.3625 42H39.6313C40.9375 42 42 40.9625 42 39.6938V12.3063C42 11.0313 40.9375 10 39.6313 10ZM19.4937 37.2687H14.7438V21.9937H19.4937V37.2687ZM17.1188 19.9125C15.5938 19.9125 14.3625 18.6812 14.3625 17.1625C14.3625 15.6438 15.5938 14.4125 17.1188 14.4125C18.6375 14.4125 19.8687 15.6438 19.8687 17.1625C19.8687 18.675 18.6375 19.9125 17.1188 19.9125ZM37.2687 37.2687H32.525V29.8438C32.525 28.075 32.4937 25.7937 30.0562 25.7937C27.5875 25.7937 27.2125 27.725 27.2125 29.7188V37.2687H22.475V21.9937H27.025V24.0813H27.0875C27.7188 22.8813 29.2688 21.6125 31.575 21.6125C36.3813 21.6125 37.2687 24.775 37.2687 28.8875V37.2687Z" fill="#FDFDFD"/>
</svg>
