<svg width="32" height="32" viewBox="0 0 32 32" fill="none" xmlns="http://www.w3.org/2000/svg">
<rect width="32" height="32" rx="6" fill="#006699"/>
<path fill-rule="evenodd" clip-rule="evenodd" d="M8.65187 7.36035C7.9386 7.36035 7.35999 7.92135 7.35999 8.61249V23.5886C7.35999 24.2798 7.93867 24.8404 8.65187 24.8404H23.5481C24.2616 24.8404 24.84 24.2798 24.84 23.5884V8.61249C24.84 7.92135 24.2616 7.36035 23.5481 7.36035H8.65187ZM12.6718 14.1193V21.9889H10.0561V14.1193H12.6718ZM12.8443 11.6856C12.8443 12.4407 12.2765 13.045 11.3645 13.045L11.3474 13.045C10.4695 13.045 9.90195 12.4407 9.90195 11.6855C9.90195 10.9132 10.4866 10.3257 11.3819 10.3257C12.2765 10.3257 12.8272 10.9132 12.8443 11.6856ZM16.7352 21.9889H14.1197C14.1197 21.9889 14.154 14.8578 14.1198 14.1196H16.7354V15.2335C17.0831 14.6974 17.7054 13.9348 19.0928 13.9348C20.8137 13.9348 22.1039 15.0596 22.1039 17.4767V21.9889H19.4885V17.7793C19.4885 16.7213 19.1097 15.9997 18.1635 15.9997C17.4407 15.9997 17.0104 16.4863 16.8214 16.9565C16.7523 17.1242 16.7352 17.3597 16.7352 17.5946V21.9889Z" fill="white"/>
</svg>
