<svg width="215" height="109" viewBox="0 0 215 109" fill="none" xmlns="http://www.w3.org/2000/svg">
<path d="M213.394 0C214.281 0 215.001 0.720016 214.988 1.60701C214.577 29.9344 203.3 57.0122 183.514 77.0746C163.354 97.5161 136.011 109 107.5 109C78.9892 109 51.6462 97.5161 31.486 77.0746C11.6997 57.0123 0.423104 29.9344 0.011669 1.60703C-0.00121403 0.720032 0.719131 1.52588e-05 1.60622 1.52588e-05C2.49332 1.52588e-05 3.2112 0.719994 3.22448 1.60699C3.63565 29.0704 14.5737 55.3199 33.7576 74.7714C53.3153 94.602 79.8412 105.743 107.5 105.743C135.159 105.743 161.685 94.602 181.242 74.7714C200.426 55.3199 211.364 29.0704 211.776 1.60698C211.789 0.719986 212.507 0 213.394 0Z" fill="url(#paint0_linear_814_1340)"/>
<defs>
<linearGradient id="paint0_linear_814_1340" x1="0" y1="109" x2="250.347" y2="55.0631" gradientUnits="userSpaceOnUse">
<stop stop-color="#416D95"/>
<stop offset="1" stop-color="#74AFAD"/>
</linearGradient>
</defs>
</svg>
