<svg width="119" height="123" viewBox="0 0 119 123" fill="none" xmlns="http://www.w3.org/2000/svg">
<path d="M113.53 75.55C98.88 78.57 97.87 73.61 97.87 73.61C113.34 50.66 119.8 21.52 114.22 14.39C99 -5.05998 72.65 4.14002 72.21 4.38002L72.06 4.40002C69.17 3.80002 65.93 3.44002 62.29 3.38002C55.66 3.27002 50.63 5.12002 46.82 8.01002C46.82 8.01002 -0.190011 -11.36 1.99999 32.37C2.46999 41.67 15.33 102.75 30.68 84.3C36.29 77.55 41.71 71.85 41.71 71.85C44.4 73.64 47.63 74.55 51 74.22L51.26 74C51.18 74.84 51.22 75.66 51.36 76.63C47.41 81.05 48.57 81.82 40.66 83.45C32.66 85.1 37.36 88.03 40.43 88.8C44.15 89.73 52.75 91.05 58.57 82.91L58.34 83.84C59.89 85.08 60.98 91.91 60.8 98.1C60.62 104.29 60.5 108.54 61.72 111.86C62.94 115.18 64.16 122.65 74.55 120.42C83.23 118.56 87.73 113.74 88.36 105.7C88.8 99.98 89.81 100.83 89.87 95.72L90.68 93.3C91.61 85.55 90.83 83.05 96.18 84.21L97.48 84.32C101.42 84.5 106.57 83.69 109.59 82.28C116.08 79.27 119.95 74.22 113.53 75.55Z" fill="#336791"/>
<path d="M57.3896 79.94C57.4196 78.94 58.2496 78.15 59.2496 78.18C60.2496 78.21 61.0396 79.04 61.0096 80.04C60.7996 87.47 60.8396 94.92 61.1096 100.88C61.3596 106.25 61.7896 110.29 62.3896 111.79C63.0296 113.38 64.0196 115.73 65.9196 117.32C67.7696 118.88 70.6196 119.83 75.1596 118.86C79.1296 118.01 81.7996 116.8 83.5796 114.95C85.3396 113.12 86.3396 110.53 86.9596 106.91C87.4196 104.27 88.0496 99.66 88.6196 95.07C89.3396 89.33 89.9996 83.53 90.1396 81.66C90.2096 80.66 91.0796 79.91 92.0796 79.99C93.0796 80.06 93.8296 80.93 93.7496 81.93C93.6096 83.75 92.9496 89.62 92.1996 95.53C91.5996 100.27 90.9596 104.97 90.5196 107.52C89.7696 111.85 88.4996 115.04 86.1696 117.46C83.8496 119.87 80.5996 121.39 75.8896 122.4C70.0396 123.65 66.1796 122.28 63.5696 120.08C60.9996 117.92 59.7796 115.06 59.0096 113.13C58.2496 111.24 57.7396 106.78 57.4696 101.03C57.2096 95.02 57.1796 87.47 57.3896 79.94Z" fill="white"/>
<path d="M47.4097 6.01003C48.3397 6.38003 48.7897 7.43003 48.4197 8.36003C48.0497 9.29003 46.9997 9.74003 46.0697 9.37003C45.9497 9.32003 1.64972 -8.77998 3.69972 32.1C3.94972 37.15 7.94972 57.81 14.0297 72.22C15.9497 76.76 18.0597 80.64 20.2997 83.12C22.1697 85.2 24.0797 86.2 25.9197 85.54C26.9397 85.17 28.0297 84.34 29.1797 82.96C34.8097 76.19 39.9297 70.84 39.9497 70.83C40.6397 70.11 41.7797 70.08 42.4997 70.77C43.2197 71.46 43.2497 72.6 42.5597 73.32C42.5497 73.33 37.5497 78.54 31.9597 85.27C30.3697 87.19 28.7497 88.38 27.1197 88.96C23.6597 90.19 20.4797 88.75 17.5997 85.55C15.0797 82.76 12.7597 78.53 10.6997 73.62C4.44972 58.83 0.339716 37.51 0.0797157 32.27C-2.25028 -14.29 47.2697 5.95003 47.4097 6.01003Z" fill="white"/>
<path d="M73.1002 5.73001L70.4102 2.79001C70.6302 2.71001 70.8502 2.64001 71.0702 2.58001C71.6602 2.39001 72.3002 2.20001 72.9902 2.00001C74.0002 1.70001 75.4802 1.31001 77.2902 0.960014C86.3202 -0.789986 103.94 -1.73999 115.55 13.1C118.83 17.29 118.56 27.66 115.17 39.94C112.17 50.81 106.76 63.34 99.2802 74.44C98.7202 75.27 97.5902 75.49 96.7602 74.93C95.9302 74.37 95.7101 73.24 96.2701 72.41C103.53 61.64 108.77 49.49 111.68 38.97C114.78 27.75 115.27 18.6 112.7 15.32C102.28 2.01001 86.2102 2.91001 77.9602 4.52001C76.2702 4.85001 74.9202 5.20001 74.0002 5.47001L73.1002 5.73001Z" fill="white"/>
<path d="M99.4897 72.87C99.5097 72.92 99.5197 72.97 99.5297 73.02C99.5297 73.03 100.15 76.26 113.06 73.6C114.89 73.22 116.19 73.3 117.03 73.71C118.12 74.23 118.59 75.1 118.52 76.22C118.48 76.9 118.16 77.63 117.63 78.36C116.41 80.03 113.62 82.19 110.23 83.76C107.69 84.94 103.82 85.73 100.27 85.93C98.1797 86.05 96.1797 85.97 94.5897 85.65C92.5897 85.25 91.0697 84.42 90.4397 83.07C90.2697 82.71 90.1697 82.32 90.1497 81.9C89.7497 74.88 93.1697 73.65 95.5597 72.97C95.3097 72.61 94.9697 72.18 94.5897 71.71C93.3797 70.2 91.8297 68.26 90.5997 65.29C90.4097 64.84 89.8597 63.84 89.1197 62.52C85.9897 56.91 79.8297 45.85 81.0397 38.3C81.8997 32.91 86.0097 29.33 96.2797 30.4L96.1797 30.1C95.6897 28.71 94.9097 26.89 93.7797 24.85C89.2997 16.69 79.5297 5.31002 62.1797 5.03002C35.7097 4.60002 36.5797 37.98 36.5797 38.07C36.5997 39.07 35.7997 39.89 34.7997 39.91C33.7997 39.93 32.9797 39.13 32.9597 38.13C32.9597 38.02 31.9797 0.920024 62.2297 1.41002C81.3297 1.72002 92.0497 14.18 96.9497 23.1C98.1697 25.32 99.0397 27.34 99.5897 28.91C100.21 30.67 100.44 32.05 100.34 32.66C100.2 33.56 99.6997 34.12 98.8397 34.29L98.1897 34.3C88.7697 32.79 85.2097 35.1 84.6097 38.86C83.5997 45.19 89.3597 55.51 92.2797 60.76C93.0697 62.18 93.6697 63.26 93.9397 63.92C94.9797 66.43 96.3397 68.13 97.3997 69.47C98.3897 70.68 99.1697 71.66 99.4897 72.87ZM113.79 77.14C104.22 79.12 99.7597 77.67 97.7097 76.11C97.4297 76.2 97.1297 76.28 96.8097 76.37C95.5297 76.73 93.5397 77.29 93.7497 81.59C93.8997 81.75 94.4597 81.92 95.2797 82.09C96.5897 82.35 98.2697 82.41 100.06 82.31C103.19 82.13 106.56 81.46 108.71 80.46C110.92 79.43 112.77 78.19 113.91 77.11L113.79 77.14Z" fill="white"/>
<path d="M52.5998 77.67C51.8598 78.5 51.2498 79.27 50.7298 79.93C48.5098 82.75 47.8198 83.63 40.9298 85.05C39.6898 85.31 38.8498 85.56 38.3298 85.81C38.9698 86.27 39.9298 86.65 40.7698 86.86C42.4698 87.29 45.2898 87.8 48.3098 87.29C51.2498 86.79 54.4198 85.28 56.9898 81.68C57.0698 81.56 57.1398 81.43 57.1998 81.3C57.4598 80.67 57.3998 79.88 57.1398 79.13C56.8598 78.33 56.3498 77.63 55.7598 77.2C55.6198 77.1 55.4798 77.02 55.3298 76.96L55.2398 76.92C54.8698 76.77 54.4598 76.61 54.1098 76.64C53.7298 76.68 53.2498 76.94 52.5998 77.67ZM47.8798 77.68C48.3698 77.06 48.9398 76.34 49.7998 75.37C49.8698 75.28 49.9498 75.19 50.0298 75.11C51.3598 73.67 52.6298 73.13 53.7998 73.03C54.9598 72.93 55.8598 73.26 56.6198 73.58C56.6498 73.59 56.6798 73.6 56.7198 73.62C57.1098 73.78 57.4898 74 57.8598 74.26C59.0498 75.11 60.0298 76.46 60.5598 77.93C61.0998 79.46 61.1898 81.17 60.5498 82.69C60.3898 83.07 60.1898 83.43 59.9398 83.78C56.6998 88.32 52.6598 90.22 48.9198 90.86C45.2498 91.49 41.9098 90.88 39.8898 90.38C38.4198 90.01 36.5998 89.19 35.5298 88.19C34.8998 87.6 34.4698 86.9 34.3498 86.12C34.2098 85.19 34.4898 84.29 35.3398 83.49C36.1598 82.72 37.6798 82.02 40.1898 81.5C45.7798 80.35 46.2798 79.72 47.8798 77.68Z" fill="white"/>
<path d="M52.7901 76.1C52.9401 77.09 52.2601 78.02 51.2701 78.16C50.2801 78.3 49.3501 77.63 49.2101 76.64C49.1701 76.4 49.1501 76.16 49.1301 75.91C48.5301 75.89 47.9401 75.85 47.3601 75.76C43.4801 75.22 39.9701 73.26 37.3301 70.36C34.7201 67.5 32.9601 63.72 32.5501 59.5C32.4001 58 32.4301 56.44 32.6501 54.87C33.5401 48.53 33.2001 42.86 33.0301 39.92C32.9801 39.12 32.9501 38.52 32.9501 38.06C32.9601 36.87 35.9501 34.25 39.8901 32.63C41.6701 31.9 43.6601 31.29 45.6301 30.99C47.7101 30.68 49.8101 30.71 51.7001 31.3C54.6601 32.23 57.0101 34.42 57.9101 38.61C61.1601 53.62 58.2501 60.07 55.9801 65.12C55.5901 65.99 55.2201 66.81 54.9401 67.55C54.9301 67.6 54.9101 67.64 54.8901 67.69C53.9401 70.25 55.3301 66.5 54.6101 68.41C53.4801 71.49 52.4901 74.13 52.7901 76.1ZM49.5201 72.3C49.9101 70.69 50.5501 68.99 51.2301 67.16C51.7701 65.72 50.3601 69.49 51.4901 66.44C51.5101 66.39 51.5301 66.34 51.5501 66.29C51.9001 65.36 52.2801 64.53 52.6701 63.65C54.7301 59.08 57.3501 53.24 54.3601 39.4C53.7801 36.71 52.3701 35.33 50.6101 34.78C49.2901 34.37 47.7401 34.36 46.1501 34.6C44.4501 34.86 42.7501 35.38 41.2301 36C38.5601 37.09 36.5401 38.01 36.5401 38.09C36.5401 38.35 36.5701 38.94 36.6201 39.73C36.8001 42.78 37.1501 48.69 36.2201 55.39C36.0401 56.7 36.0101 57.97 36.1301 59.19C36.4601 62.59 37.8801 65.64 39.9901 67.95C42.0701 70.23 44.8201 71.78 47.8401 72.2C48.4001 72.26 48.9601 72.3 49.5201 72.3Z" fill="white"/>
<path d="M46.5693 37.82C46.4893 38.41 47.6593 40 49.1793 40.21C50.6993 40.42 52.0093 39.18 52.0893 38.59C52.1693 38 50.9993 37.34 49.4793 37.13C47.9593 36.92 46.6493 37.23 46.5693 37.82Z" fill="white"/>
<path d="M47.1696 37.9C47.1496 38.03 47.3596 38.37 47.7096 38.74C48.0996 39.15 48.6496 39.52 49.2596 39.61H49.2696C49.8696 39.69 50.4296 39.49 50.8496 39.2C51.2396 38.94 51.4796 38.66 51.5096 38.5C51.5096 38.47 51.3596 38.38 51.1096 38.24C50.6996 38.01 50.0996 37.82 49.4096 37.72H49.3896C48.7096 37.63 48.0796 37.65 47.6296 37.76C47.3496 37.83 47.1696 37.88 47.1696 37.9ZM46.8396 39.57C46.2496 38.95 45.9196 38.21 45.9796 37.75V37.73C46.0596 37.16 46.5696 36.77 47.3496 36.58C47.9396 36.44 48.7196 36.41 49.5496 36.52C49.5596 36.52 49.5696 36.52 49.5796 36.52C50.4196 36.64 51.1696 36.88 51.6996 37.18C52.3996 37.57 52.7896 38.1 52.7096 38.66C52.6496 39.1 52.1996 39.74 51.5296 40.19C50.8996 40.62 50.0396 40.93 49.1096 40.8H49.0996C48.1796 40.68 47.3896 40.15 46.8396 39.57Z" fill="white"/>
<path d="M93.0102 36.61C93.0902 37.2 91.9202 38.79 90.4002 39C88.8702 39.21 87.5702 37.97 87.4902 37.38C87.4102 36.79 88.5802 36.13 90.1102 35.92C91.6202 35.71 92.9202 36.02 93.0102 36.61Z" fill="white"/>
<path d="M93.3001 36.57C93.3501 36.95 93.0501 37.6 92.5201 38.16C92.0101 38.7 91.2701 39.19 90.4301 39.3H90.4201C89.5801 39.41 88.8001 39.13 88.2201 38.74C87.6201 38.34 87.2301 37.79 87.1701 37.42C87.1101 36.99 87.4401 36.57 88.0301 36.24C88.5301 35.96 89.2401 35.73 90.0401 35.62C90.8401 35.51 91.5901 35.54 92.1501 35.67C92.8101 35.82 93.2401 36.13 93.3001 36.57ZM92.0801 37.74C92.4901 37.31 92.7301 36.87 92.7001 36.65C92.6801 36.49 92.4201 36.35 92.0201 36.25C91.5301 36.13 90.8601 36.11 90.1301 36.21C89.4101 36.31 88.7701 36.52 88.3301 36.76C87.9701 36.96 87.7601 37.17 87.7801 37.33C87.8101 37.55 88.1101 37.92 88.5701 38.23C89.0401 38.55 89.6801 38.78 90.3601 38.69H90.3701C91.0401 38.6 91.6501 38.19 92.0801 37.74Z" fill="white"/>
<path d="M96.6498 32.59C96.5998 31.59 97.3698 30.74 98.3698 30.69C99.3698 30.64 100.22 31.41 100.27 32.41C100.42 35.21 100.08 37.43 99.7198 39.76C99.4498 41.5 99.1698 43.32 99.1098 45.35C99.0498 47.28 99.2998 49.42 99.5698 51.62C100.27 57.41 101.01 63.61 96.7098 70.02C96.1498 70.85 95.0298 71.07 94.1998 70.52C93.3698 69.96 93.1498 68.84 93.6998 68.01C97.2398 62.72 96.5798 57.21 95.9598 52.05C95.6798 49.75 95.4098 47.51 95.4898 45.25C95.5598 42.91 95.8498 41.04 96.1298 39.23C96.4698 37.05 96.7798 34.99 96.6498 32.59Z" fill="white"/>
</svg>
