<svg width="23" height="28" viewBox="0 0 23 28" fill="none" xmlns="http://www.w3.org/2000/svg">
<path d="M0.263189 27.7995C0.10929 27.7266 0 27.5694 0 27.3825V0.455692C0 0.205061 0.198507 0 0.446082 0H22.5539C22.7993 0 23 0.202783 23 0.455692V25.0015C23 25.0266 22.9978 25.0494 22.9955 25.0722C22.9331 25.9676 22.6476 26.6648 22.1346 27.1661C21.6216 27.6628 20.9012 27.9408 19.9666 27.9954C19.9466 27.9977 19.9287 28 19.9087 28H0.631206C0.479538 27.9977 0.343483 27.918 0.263189 27.7995ZM10.1305 8.90422C10.6814 10.0754 12.3476 10.1164 12.8739 8.91106C12.7312 8.76296 12.6241 8.60347 12.5171 8.44625C12.4992 8.42119 12.4814 8.39385 12.4658 8.36878C12.2115 8.57385 11.9037 8.706 11.5022 8.706C11.0695 8.706 10.7417 8.53511 10.474 8.28448C10.4584 8.26853 10.4428 8.25486 10.4272 8.23891C10.3893 8.34828 10.3402 8.47815 10.2889 8.59891C10.2354 8.71511 10.1818 8.82448 10.1305 8.90422ZM13.0278 8.78119C13.6144 9.20498 15.0419 9.30751 15.5906 9.61966C15.7735 9.72219 15.9363 9.85434 16.0701 10.0343C16.3467 10.4057 16.9087 11.7569 15.9943 11.8275H14.2746L14.4865 9.40776C14.0248 9.31662 13.5364 9.24371 13.0256 8.94296C12.7111 10.3579 10.5721 10.5607 9.95656 8.98169C9.49932 9.21637 9.05324 9.35308 8.52017 9.4351L8.8525 11.8252H7.00572C6.09125 11.7546 6.65555 10.4035 6.92989 10.0321C7.06148 9.85434 7.22653 9.72219 7.40943 9.61738C7.95588 9.30523 9.37665 9.2027 9.96771 8.78346C10.0101 8.71739 10.0569 8.61942 10.1015 8.51461C10.1684 8.35739 10.2309 8.18423 10.271 8.06575C10.106 7.86752 9.96548 7.64424 9.82942 7.42322L9.38334 6.69639C9.22052 6.44804 9.13576 6.2202 9.12907 6.03336C9.12684 5.9445 9.14023 5.86476 9.17368 5.7964C9.20714 5.72349 9.25844 5.66197 9.32758 5.61413C9.35881 5.59134 9.39672 5.57311 9.43687 5.55716C9.40788 5.16299 9.39672 4.66629 9.4168 4.25161C9.42572 4.15363 9.44579 4.05338 9.47256 3.95541C9.58631 3.53845 9.87403 3.20352 10.2287 2.97111C10.4249 2.84352 10.6391 2.74782 10.8621 2.68403C11.0026 2.64301 10.842 2.31719 10.9892 2.30125C11.6985 2.22606 12.7468 2.75238 13.242 3.29921C13.4895 3.57263 13.6457 3.93718 13.6791 4.41793L13.6501 5.60273C13.775 5.64147 13.8531 5.72121 13.8865 5.85109C13.9222 5.99463 13.8843 6.19741 13.7639 6.47538C13.7616 6.47994 13.7594 6.4845 13.7572 6.49133L13.2486 7.34803C13.0613 7.66246 12.8717 7.97917 12.6241 8.22752C12.6464 8.25942 12.6687 8.2936 12.691 8.32777C12.7914 8.47815 12.894 8.63081 13.0234 8.76524C13.0211 8.77207 13.0256 8.77663 13.0278 8.78119ZM9.69114 5.76906C9.593 5.77362 9.51716 5.79412 9.46587 5.8283C9.43687 5.84881 9.41457 5.87387 9.40118 5.90349C9.38557 5.93767 9.37888 5.97868 9.38111 6.02653C9.38557 6.16551 9.45694 6.34779 9.593 6.55741L9.59523 6.55969L10.0413 7.28652C10.2197 7.57816 10.4093 7.87436 10.6413 8.09309C10.8666 8.30271 11.1387 8.44397 11.4978 8.44625C11.8881 8.44625 12.1736 8.30043 12.4055 8.07714C12.6464 7.84702 12.836 7.53031 13.0234 7.21588L13.5274 6.3683C13.6211 6.14956 13.6546 6.00374 13.6345 5.91716C13.6211 5.86704 13.5676 5.84197 13.4717 5.83514C13.4516 5.83514 13.4315 5.83286 13.4115 5.83514C13.3892 5.83514 13.3646 5.83742 13.3401 5.83969C13.3267 5.84197 13.3133 5.83969 13.3022 5.83742C13.2576 5.83969 13.2107 5.83742 13.1639 5.83058L13.3356 5.05135C12.0554 5.25641 11.0985 4.28578 9.74467 4.85768L9.8428 5.7759C9.7915 5.77818 9.74021 5.7759 9.69114 5.76906ZM15.7177 24.6484C15.4746 24.6484 15.2761 24.4456 15.2761 24.1927C15.2761 23.9421 15.4724 23.737 15.7177 23.737H19.438C19.6811 23.737 19.8797 23.9398 19.8797 24.1927C19.8797 24.4433 19.6834 24.6484 19.438 24.6484H15.7177ZM3.75155 21.3309C3.50844 21.3309 3.30993 21.1282 3.30993 20.8753C3.30993 20.6246 3.50621 20.4196 3.75155 20.4196H19.476C19.7191 20.4196 19.9176 20.6223 19.9176 20.8753C19.9176 21.1259 19.7213 21.3309 19.476 21.3309H3.75155ZM3.82292 18.0135C3.57981 18.0135 3.3813 17.8107 3.3813 17.5578C3.3813 17.3072 3.57758 17.1021 3.82292 17.1021H19.4358C19.6789 17.1021 19.8774 17.3049 19.8774 17.5578C19.8774 17.8084 19.6811 18.0135 19.4358 18.0135H3.82292ZM3.75155 14.6961C3.50844 14.6961 3.30993 14.4933 3.30993 14.2404C3.30993 13.9897 3.50621 13.7847 3.75155 13.7847H10.4718C10.7149 13.7847 10.9134 13.9875 10.9134 14.2404C10.9134 14.491 10.7171 14.6961 10.4718 14.6961H3.75155ZM12.187 14.6961C11.9439 14.6961 11.7453 14.4933 11.7453 14.2404C11.7453 13.9897 11.9416 13.7847 12.187 13.7847H19.4358C19.6789 13.7847 19.8774 13.9875 19.8774 14.2404C19.8774 14.491 19.6811 14.6961 19.4358 14.6961H12.187ZM22.1101 24.9902V0.909106H0.889934V27.0886H19.9153C20.6313 27.0476 21.1666 26.8517 21.5212 26.5076C21.8714 26.1681 22.0655 25.66 22.1101 24.9902Z" fill="url(#paint0_linear_2512_3844)"/>
<defs>
<linearGradient id="paint0_linear_2512_3844" x1="0" y1="0" x2="27.1502" y2="4.87197" gradientUnits="userSpaceOnUse">
<stop stop-color="#416D95"/>
<stop offset="1" stop-color="#74AFAD"/>
</linearGradient>
</defs>
</svg>
