<svg width="215" height="109" viewBox="0 0 215 109" fill="none" xmlns="http://www.w3.org/2000/svg">
<path d="M213.394 109C214.281 109 215.001 108.28 214.988 107.393C214.577 79.0656 203.3 51.9878 183.514 31.9254C163.354 11.4839 136.011 2.18254e-06 107.5 0C78.9892 -2.18254e-06 51.6462 11.4839 31.486 31.9254C11.6997 51.9877 0.423104 79.0656 0.011669 107.393C-0.00121403 108.28 0.719131 109 1.60622 109C2.49332 109 3.2112 108.28 3.22448 107.393C3.63565 79.9296 14.5737 53.6801 33.7576 34.2286C53.3153 14.398 79.8412 3.25727 107.5 3.25727C135.159 3.25727 161.685 14.398 181.242 34.2286C200.426 53.6801 211.364 79.9296 211.776 107.393C211.789 108.28 212.507 109 213.394 109Z" fill="url(#paint0_linear_814_1339)"/>
<defs>
<linearGradient id="paint0_linear_814_1339" x1="0" y1="0" x2="250.347" y2="53.9369" gradientUnits="userSpaceOnUse">
<stop stop-color="#416D95"/>
<stop offset="1" stop-color="#74AFAD"/>
</linearGradient>
</defs>
</svg>
